<?xml version="1.0" encoding="UTF-8"?>
<!DOCTYPE svg PUBLIC "-//W3C//DTD SVG 1.1//EN" "http://www.w3.org/Graphics/SVG/1.1/DTD/svg11.dtd">
<!-- Creator: CorelDRAW X7 -->
<svg xmlns="http://www.w3.org/2000/svg" xml:space="preserve" width="300px" height="300px" version="1.1" style="shape-rendering:geometricPrecision; text-rendering:geometricPrecision; image-rendering:optimizeQuality; fill-rule:evenodd; clip-rule:evenodd"
viewBox="0 0 75805 75805"
 xmlns:xlink="http://www.w3.org/1999/xlink">
 <defs>
  <style type="text/css">
   <![CDATA[
    .fil0 {fill:#2B2A29}
   ]]>
  </style>
 </defs>
 <g id="Слой_x0020_1">
  <metadata id="CorelCorpID_0Corel-Layer"/>
  <path class="fil0" d="M562 562l0 0c-749,749 -749,1974 0,2722l34618 34618 -34618 34619c-749,748 -749,1973 0,2722l0 0c749,749 1974,749 2723,0l34618 -34618 34618 34618c749,749 1973,749 2722,0l1 0c748,-749 748,-1974 0,-2722l-34619 -34619 34618 -34618c749,-748 749,-1973 0,-2722l0 0c-749,-749 -1973,-749 -2722,0l-34618 34618 -34618 -34618c-749,-749 -1974,-749 -2723,0z"/>
 </g>
</svg>
