<?xml version="1.0" encoding="UTF-8"?>
<!DOCTYPE svg PUBLIC "-//W3C//DTD SVG 1.1//EN" "http://www.w3.org/Graphics/SVG/1.1/DTD/svg11.dtd">
<!-- Creator: CorelDRAW X7 -->
<svg xmlns="http://www.w3.org/2000/svg" xml:space="preserve" width="300px" height="267px" version="1.1" style="shape-rendering:geometricPrecision; text-rendering:geometricPrecision; image-rendering:optimizeQuality; fill-rule:evenodd; clip-rule:evenodd"
viewBox="0 0 30000 26653"
 xmlns:xlink="http://www.w3.org/1999/xlink">
 <defs>
  <style type="text/css">
   <![CDATA[
    .fil0 {fill:black}
   ]]>
  </style>
 </defs>
 <g id="Слой_x0020_1">
  <metadata id="CorelCorpID_0Corel-Layer"/>
  <g id="_525572080">
   <g>
    <path class="fil0" d="M21239 0l-12478 0c-909,0 -1727,485 -2181,1242l-6239 10843c-455,787 -455,1726 0,2514l6239 10812c454,788 1272,1242 2181,1242l12478 0c909,0 1727,-484 2181,-1242l6239 -10812c455,-788 455,-1727 0,-2514l-6239 -10813c-454,-787 -1272,-1272 -2181,-1272zm-4725 19717c-4785,1060 -8965,-3119 -7905,-7905 545,-2423 2484,-4361 4907,-4906 4755,-1030 8935,3150 7875,7935 -545,2393 -2484,4331 -4877,4876z"/>
   </g>
  </g>
 </g>
</svg>
