<?xml version="1.0" encoding="UTF-8"?>
<!DOCTYPE svg PUBLIC "-//W3C//DTD SVG 1.1//EN" "http://www.w3.org/Graphics/SVG/1.1/DTD/svg11.dtd">
<!-- Creator: CorelDRAW X7 -->
<svg xmlns="http://www.w3.org/2000/svg" xml:space="preserve" width="300px" height="170px" version="1.1" style="shape-rendering:geometricPrecision; text-rendering:geometricPrecision; image-rendering:optimizeQuality; fill-rule:evenodd; clip-rule:evenodd"
viewBox="0 0 29676 16806"
 xmlns:xlink="http://www.w3.org/1999/xlink">
 <defs>
  <style type="text/css">
   <![CDATA[
    .fil0 {fill:#fff}
   ]]>
  </style>
 </defs>
 <g id="Слой_x0020_1">
  <metadata id="CorelCorpID_0Corel-Layer"/>
  <path class="fil0" d="M21898 2036c-6,-4 -6,-9 -10,-14 -4,-6 -8,-11 -12,-17 -6,-11 -11,-24 -18,-35 -13,-21 -18,-46 -18,-70 0,-9 -2,-21 5,-27 12,-11 28,-7 42,-10 13,-2 24,0 35,3 13,4 23,15 32,24 9,9 15,18 28,17 8,0 10,-1 16,-5 6,-4 13,-6 20,-11 9,-6 20,-14 28,-22 4,-5 10,-9 14,-14 5,-7 9,-13 15,-19 8,-7 14,-15 20,-24 3,-4 6,-7 9,-12 3,-6 6,-13 10,-19 6,-11 10,-26 12,-37 1,-11 2,-26 -5,-34 -8,-8 -17,-19 -26,-24 -4,-2 -8,-6 -13,-8 -9,-4 -15,-6 -23,-14 -9,-8 -16,-20 -17,-32 -1,-4 0,-8 0,-11 0,-8 -2,-12 5,-16 7,-5 12,-4 19,-5 7,-1 12,-3 19,-3 10,0 26,3 35,-2 10,-6 13,-20 14,-30 0,-7 1,-15 -2,-21 -4,-7 -12,-11 -20,-13 -14,-4 -29,-2 -44,-2 -7,0 -15,-1 -23,0 -10,0 -18,4 -27,7 -13,5 -27,15 -36,27 -7,10 -12,23 -18,34 -7,13 -15,25 -25,37 -4,4 -9,8 -13,13 -8,8 -14,10 -24,13 -12,5 -26,6 -39,8 -21,2 -45,1 -66,-2 -9,-1 -18,-3 -26,-3 -7,0 -13,-2 -20,-3 -18,-1 -33,-12 -45,-26 -6,-8 -14,-17 -20,-25 -5,-6 -10,-14 -15,-20 -5,-5 -12,-9 -18,-13 -7,-5 -13,-14 -22,-16 -5,-1 -14,0 -21,0 -11,1 -23,4 -34,8 -7,3 -19,7 -24,13 -4,6 -1,13 1,18 4,13 2,29 2,43 0,5 1,11 -4,14 -3,2 -13,3 -17,4l-2 3c-11,0 -21,0 -32,3 -10,2 -20,5 -31,7 -10,1 -21,3 -31,5 -11,1 -22,0 -33,0 -16,0 -34,4 -50,9 -6,2 -12,3 -18,4 -9,2 -17,3 -26,5 -8,2 -16,4 -24,6 -10,3 -17,7 -27,11 -5,3 -11,5 -17,8 -5,2 -9,6 -14,8 -14,5 -26,13 -39,21 -17,9 -33,19 -50,29 -9,5 -19,6 -29,11 -7,3 -18,10 -26,9l0 3c-1,-8 -12,-18 -17,-25 -6,-8 -15,-26 -25,-30 -8,-3 -18,4 -26,7 -10,3 -20,7 -30,11 -5,2 -9,4 -13,7 -5,3 -13,6 -15,11 -2,6 2,11 5,16 3,5 6,10 8,15 4,9 9,20 11,30 1,8 7,17 5,26 -16,3 -32,9 -44,19 -7,6 -13,12 -19,18 -6,6 -12,8 -18,13 -8,6 -13,14 -21,20 -11,8 -22,14 -32,22 -15,11 -36,21 -47,37l0 3c-11,0 -22,17 -29,24 -6,5 -13,11 -21,15 -7,4 -14,6 -21,10 -5,2 -7,5 -11,6 -3,1 -8,0 -11,0 -11,0 -18,-3 -28,-9 -16,-9 -34,-12 -52,-15 -11,-2 -22,-6 -33,-8 -7,-1 -15,1 -23,1 -9,-1 -17,-3 -26,-3 -11,0 -21,0 -32,0 -16,0 -38,-4 -53,3 -9,5 -14,11 -18,20 -5,12 -14,21 -24,30 -6,5 -8,5 -16,5 -2,0 -8,-1 -10,0 -9,4 -12,26 -14,34l-13 5c-13,0 -25,-2 -38,-2 -14,0 -27,-5 -40,-6 -11,-1 -20,-1 -30,-3 -9,-1 -19,-4 -29,-2 -12,2 -5,15 -8,23 -2,5 -5,10 -8,15 -2,6 -3,12 -5,17 -3,11 -4,23 -6,35 -3,24 -9,47 -12,70l0 6c8,0 13,-1 21,3 7,4 15,9 21,15 5,6 10,14 12,21 2,9 1,18 1,26 0,6 1,13 0,19 0,4 -2,8 -3,13 0,9 -1,21 -5,29 -5,10 -22,1 -28,-3 -13,-6 -27,-7 -39,-12 -11,-4 -21,-7 -30,-13 -7,-4 -14,-10 -22,-14 -8,-5 -8,-11 -5,-21 3,-12 7,-25 9,-37 3,-10 3,-20 2,-30 0,-8 -7,-12 -15,-14 -6,-2 -10,-2 -15,-6 -3,-3 -5,-4 -9,-7 -9,-5 -8,-15 -12,-24 -5,-9 -17,-15 -26,-20 -11,-6 -26,-9 -38,-9 -9,0 -22,-4 -27,5 -2,5 -1,10 -3,16 -1,7 -5,9 -10,13 -7,6 -16,11 -26,15 -12,4 -18,-1 -29,-7 -15,-9 -32,-13 -45,-26 -6,-6 -5,-13 -5,-22 0,-15 2,-28 4,-44 2,-6 3,-15 -3,-19 -2,-3 -6,-4 -10,-5 -4,-1 -8,-2 -13,-4 -8,-4 -16,-5 -25,-6 -9,-1 -18,-5 -27,-5 -4,-1 -7,0 -10,-1 -6,-1 -10,-6 -15,-9 -6,-3 -18,-7 -24,-1 -1,2 -1,6 -2,8 -2,3 -4,6 -6,10 -3,5 -4,9 -9,14 -10,12 -19,25 -30,37 -4,4 -8,11 -15,8 -2,-1 -3,-3 -5,-5 -3,-4 -6,-5 -10,-7 -8,-4 -16,-7 -24,-10 -9,-3 -19,-4 -28,-7 -8,-3 -15,-7 -21,-13 -5,-5 -8,-7 -15,-8 -9,-2 -17,-2 -26,-3 -6,0 -16,-5 -21,-1 -4,4 -2,14 -2,19 0,6 0,12 0,17 0,10 -3,18 -3,28l-23 5c-12,0 -24,0 -35,0 -4,0 -14,-2 -18,0 -6,4 -1,19 -3,24 -2,9 -9,19 -14,26 -4,6 -9,13 -12,20 -4,8 -6,18 -10,27 -3,5 -6,11 -9,16 -2,3 -5,16 -8,18 -3,1 -4,0 -7,-2 -4,-5 -8,-9 -13,-13 -13,-9 -29,-15 -42,-23 -12,-8 -24,-5 -24,-22 1,-19 0,-37 0,-55 0,-14 0,-27 -10,-37 -5,-5 -11,-9 -16,-13 -4,-2 -9,-3 -13,-6 -5,-3 -10,-7 -16,-10 -6,-4 -13,-9 -19,-13 -9,-4 -19,-8 -27,-13 -13,-9 -12,-25 -12,-39 0,-15 -8,-29 -11,-43 -5,-16 -12,-31 -16,-47 -2,-7 -5,-15 -7,-22 -1,-7 1,-9 8,-10 18,0 37,-5 54,-11 9,-3 13,-6 12,-15 -1,-8 -5,-16 -6,-24 -1,-9 -8,-37 0,-44 2,-1 8,-2 10,-3 4,-2 9,-5 13,-8 10,-6 22,-12 32,-18 18,-13 13,-36 13,-55l0 -3c6,-7 8,-18 12,-26 4,-7 3,-20 12,-24 3,-1 9,0 13,0 7,0 14,0 21,0 15,0 32,4 44,12 5,3 11,5 15,8 6,4 10,10 15,15 10,9 21,14 31,21 4,3 8,7 12,10 6,3 9,8 14,12 5,3 9,7 13,10 4,3 11,3 14,7l2 0c-1,-8 3,-17 6,-24 3,-6 4,-12 7,-19 7,-16 14,-32 20,-49 11,-37 21,-75 25,-113 1,-8 3,-15 3,-23 0,-5 -1,-11 0,-17 1,-6 6,-14 0,-19 -3,-3 -8,-1 -11,-2 -5,-1 -11,-4 -15,-6 -14,-6 -33,-14 -40,-28 -3,-6 -6,-12 -8,-19 -5,-12 -11,-13 -24,-13 -17,1 -18,22 -26,35 -4,7 -9,10 -15,16 -3,3 -5,7 -8,10 -4,5 -9,8 -13,13 -6,5 -10,11 -19,10 -8,0 -12,-7 -20,-8 -23,-4 -23,21 -27,36 -3,10 -8,20 -15,27 -6,6 -18,13 -27,14 -19,2 -33,-24 -45,-35 -9,-8 -18,-16 -28,-21 -8,-4 -16,-2 -24,0 -18,4 -35,8 -53,12 -10,2 -20,2 -31,2 -13,-1 -24,-8 -36,-14 -16,-8 -31,-20 -48,-25 -10,-3 -20,-5 -30,-9 -5,-2 -7,-4 -12,-5 -6,-1 -8,-1 -13,-4 -7,-3 -18,-10 -21,-18 -4,-8 -1,-18 -6,-26l-10 -7c-5,0 -13,-9 -16,-11 -4,-4 -7,-8 -10,-13 -6,-6 -13,-8 -19,-13 -5,-5 -10,-10 -13,-15 -4,-6 -7,-12 -8,-18 -1,-5 1,-11 0,-17 -1,-5 -2,-11 -3,-17 -1,-7 -2,-16 -4,-22 -2,-3 -3,-9 -6,-11 -4,-2 -15,0 -19,0 -20,0 -40,0 -60,0 -11,0 -21,1 -30,-3 -14,-5 -25,-13 -33,-26 -7,-11 -13,-23 -23,-32 -12,-9 -26,-4 -39,-5 -6,0 -14,-3 -20,-6 -6,-2 -13,-4 -20,-7 -18,-6 -33,-18 -50,-27 -9,-5 -27,-21 -37,-13 -2,2 -4,6 -6,8 -3,5 -8,9 -11,13 -5,8 -11,17 -14,26 -2,6 -3,12 -6,18 -2,4 -8,13 -8,17 1,7 5,5 10,5 10,1 17,5 27,10 8,4 16,8 23,14 6,4 11,7 17,11 5,3 9,8 15,10 7,3 14,5 20,11 6,7 5,12 6,21 1,11 5,24 8,36 6,25 19,46 28,69 -5,4 -16,-7 -20,-9 -9,-5 -16,-11 -24,-17 -14,-11 -26,-27 -42,-35 -7,-4 -15,-7 -22,-11 -7,-4 -16,-8 -23,-9 -12,-2 -26,-5 -38,0 -7,3 -11,6 -11,14 0,7 -1,13 -3,21 -4,7 -9,14 -13,21 -5,9 -8,14 -17,21 -5,4 -10,6 -17,2 -3,-2 -5,-6 -8,-9 -6,-4 -14,-8 -20,-13 -8,-5 -14,-11 -20,-18 -4,-5 -13,-22 -20,-21l-3 -3c0,-9 1,-17 7,-25 6,-8 10,-18 17,-25 7,-7 13,-15 20,-22 5,-6 15,-12 17,-21 2,-9 -9,-14 -15,-19 -9,-7 -16,-15 -24,-23 -12,-13 -37,-23 -17,-43 9,-9 18,-17 26,-26 3,-4 6,-9 10,-13 2,-3 7,-8 8,-11 3,-9 -7,-10 -12,-12 -10,-3 -19,-8 -27,-13 -19,-11 -37,-19 -54,-34 -12,-12 -22,-23 -36,-32 -6,-4 -16,-10 -23,-6 -7,4 -4,17 -5,24 -1,10 -5,19 -8,28 -5,16 -13,33 -15,50 -3,20 -7,40 -8,61 -1,15 -1,31 -1,47 0,8 0,16 0,25 0,11 5,21 8,31 3,10 7,18 10,27 3,8 7,16 9,24 4,17 -15,32 -19,48 -3,10 -5,19 -7,29 -2,10 -6,16 -13,23 -8,8 -18,14 -28,20 -10,6 -18,6 -25,-2 -9,-10 -18,-14 -31,-16 -11,-3 -26,-4 -35,4 -8,6 -16,16 -21,25 -5,9 -3,22 -3,32 0,10 -2,20 4,29 6,8 11,20 13,30 3,10 3,22 -3,31 -3,5 -9,8 -13,13 -5,5 -9,9 -17,11l-2 3c-5,0 -10,0 -15,0 -5,0 -11,3 -16,4 -15,4 -29,8 -43,12 -13,3 -27,5 -41,5 -5,0 -8,1 -11,-3 -3,-4 -2,-11 -4,-16 -1,-3 -4,-8 -6,-11 -4,-6 -6,-13 -9,-20 -5,-12 -9,-19 -23,-13 -8,4 -14,2 -23,3 -12,2 -22,2 -34,2 -11,0 -21,0 -32,-3 -5,-2 -10,-4 -16,-5l-6 21c-4,4 -7,9 -10,14 -4,7 -10,12 -13,18 -5,9 -13,17 -21,24 -8,7 -18,5 -29,5 -11,0 -21,-1 -32,-3 -5,-1 -7,-2 -8,-6 -1,-5 0,-12 0,-17 0,-5 1,-9 0,-14 -1,-7 -1,-15 -3,-22 -2,-8 -8,-21 -16,-25 -11,-6 -25,-2 -37,-7 -11,-4 -13,-10 -10,-21 5,-18 5,-38 8,-56 2,-11 9,-26 -5,-32 -10,-5 -28,-8 -33,-21 -2,-5 -1,-13 -1,-18 0,-5 0,-11 1,-15 1,-4 4,-7 5,-11 1,-6 0,-11 3,-17 3,-5 7,-6 12,-8 6,-2 11,-5 16,-8 4,-1 8,-3 12,-4 5,-2 16,-7 20,-6 8,1 12,23 15,30 1,3 1,6 3,10 2,2 4,3 5,5 3,6 4,14 11,16 6,2 14,-1 19,-3 9,-3 19,-7 28,-11 8,-4 14,-8 21,-12 4,-4 11,-7 14,-11l2 0c-4,-3 -5,-8 -7,-13 -4,-7 -7,-14 -11,-21 -5,-9 -9,-19 -11,-29 -4,-18 -2,-37 -2,-55 0,-10 0,-19 -2,-29 -2,-9 1,-19 -1,-29 -2,-11 -5,-22 -9,-33 -1,-4 -2,-8 -4,-12 -3,-7 -7,-9 -12,-14 -18,-17 -25,-39 -30,-63 -3,-18 1,-39 2,-57 1,-21 15,-41 24,-60 6,-14 11,-29 19,-43 3,-6 16,-23 23,-23l-10 -32c-1,-4 -8,-9 -11,-14 -4,-5 -8,-12 -14,-17 -9,-9 -20,-17 -31,-24 -5,-3 -8,-11 -15,-10 -4,0 -11,8 -14,10 -7,6 -16,11 -26,11 -12,0 -14,-11 -22,-19 -10,-8 -15,-16 -22,-26 -3,-4 -6,-7 -9,-11 -3,-5 -7,-9 -7,-15 -2,-10 2,-20 5,-29 7,-17 13,-35 13,-53 0,-8 1,-14 -3,-21 -3,-5 -6,-10 -10,-14 -4,-6 -10,-9 -15,-14 -8,-8 -15,-22 -19,-32 -4,-13 -3,-26 -3,-40 0,-19 -2,-39 1,-58 2,-18 4,-35 4,-52l0 -3c0,-10 -9,-20 -13,-29 -3,-7 -5,-15 -7,-23 -2,-9 -1,-20 -1,-29 0,-10 1,-17 3,-27 3,-8 5,-14 5,-23 0,-3 1,-8 0,-11 -2,-3 -5,-6 -7,-9 -6,-12 -11,-25 -17,-37 -4,-10 -8,-23 -14,-31 -3,-4 -4,-8 -6,-12 -4,-5 -11,-7 -16,-9 -4,-2 -7,-5 -11,-6 -3,-2 -8,-2 -11,-3 -10,-5 -17,-16 -22,-26 -2,-4 -5,-9 -6,-14 -1,-4 1,-9 0,-13 -2,-10 -5,-20 -7,-30 -4,-20 -9,-43 -18,-62 -2,-3 -5,-10 -9,-11 -3,0 -7,3 -10,3 -6,1 -21,3 -25,-2l-21 5c-3,4 -7,2 -11,2 -5,1 -9,3 -14,6 -7,4 -14,8 -21,13 -9,8 -15,17 -24,26 -7,7 -15,14 -21,22 -5,6 -9,21 -19,18 -4,-2 -7,-6 -10,-7 -5,-3 -11,-5 -16,-6 -11,-2 -23,-3 -34,-5 -6,-2 -15,-6 -21,-3 -4,2 -4,9 -5,12 -2,6 -5,9 -9,13 -10,10 -17,21 -26,33 -3,5 -9,6 -13,11 -3,3 -6,8 -10,11 -8,9 -19,16 -27,26 -13,14 -23,30 -30,47 -3,7 -3,12 -4,19 -1,8 -5,15 -8,23 -2,6 -5,31 -14,32 -5,-6 -8,-15 -11,-21 -3,-6 -6,-10 -9,-15 -4,-7 -7,-13 -13,-20 -6,-6 -13,-13 -21,-18 -24,-15 -50,-26 -79,-26l-2 0c-11,2 -20,-10 -27,-16 -8,-7 -17,-12 -25,-19 -10,-8 -18,-18 -27,-28 -8,-9 -16,-17 -24,-27 -13,-15 -26,-30 -42,-42 -5,-4 -8,-10 -13,-15 -5,-6 -10,-11 -16,-17 -3,-3 -6,-6 -10,-10 -3,-3 -5,-9 -9,-11 -6,-5 -21,-2 -28,-2 -7,0 -14,0 -21,0 -6,0 -10,-2 -16,-3 -6,-1 -16,-5 -23,-2 -4,1 -7,5 -11,7 -5,3 -10,5 -15,7 -18,8 -43,18 -63,18 -13,0 -25,-11 -34,-21 -4,-5 -7,-11 -11,-16 -4,-5 -9,-9 -13,-13l-3 -3c-13,0 -20,4 -31,10 -9,4 -17,7 -25,13 -8,5 -16,9 -24,15 -4,4 -8,4 -12,7 -3,2 -6,6 -10,5 -4,-1 -11,-8 -14,-10 -6,-5 -12,-10 -18,-14 -9,-7 -18,-13 -26,-21 -4,-4 -9,-6 -8,-12 1,-4 4,-6 5,-9 1,-5 0,-10 0,-15 0,-6 2,-11 3,-16 0,-8 6,-19 -1,-24 -4,-2 -11,-2 -15,-3 -6,-2 -12,-3 -18,-4 -11,-2 -21,-3 -32,-3 -4,0 -8,0 -12,0 -4,-1 -7,-3 -11,-3 -5,-1 -12,0 -18,0 -7,0 -16,-2 -23,0 -5,2 -17,6 -21,10 -6,7 7,15 2,23 -1,1 -5,2 -7,4 -2,2 -2,5 -3,7 -3,5 -7,6 -4,12 2,6 11,11 14,15 4,5 7,11 10,17 5,11 5,23 4,35 0,10 -6,26 -13,34 -8,0 -11,-1 -18,-4 -9,-5 -18,-7 -27,-12 -5,-2 -10,-4 -15,-8 -4,-2 -7,-5 -11,-7 -10,-5 -20,-9 -29,-15 -6,-4 -13,-6 -20,-9 -3,-2 -7,-2 -10,-4 -3,-2 -6,-5 -9,-6 -10,-5 -15,5 -20,11 -6,8 -12,16 -17,24 -4,6 -7,13 -11,19 -5,9 0,12 3,20 2,8 6,19 5,27 0,7 -7,17 -12,23 -8,9 -17,16 -24,27 -1,3 -6,7 -6,10 0,3 5,6 8,8 6,7 9,16 14,24 6,8 7,16 7,26 0,10 0,17 -8,24 -8,7 -19,11 -28,13 -9,2 -19,7 -28,6 -7,-1 -24,-5 -28,-11l-21 -5c-12,0 -22,-7 -35,-6 -11,2 -9,11 -14,19 -5,5 -14,10 -19,16 -6,5 -11,6 -19,5 -9,-1 -11,-6 -18,-10 -6,-5 -14,-8 -21,-12 -2,-1 -3,-4 -5,-4 -4,-2 -9,-1 -13,-1 -16,0 -26,1 -40,9 -9,4 -6,5 -5,13 2,10 0,23 0,33 0,14 0,28 0,43 0,4 -2,14 1,18 4,7 19,0 26,0 7,0 14,0 22,0 8,0 13,1 21,5 13,6 33,17 27,35 -4,14 -22,27 -33,36 -6,6 -17,13 -19,22 -1,7 0,18 1,25 0,6 2,10 2,15 1,8 0,16 0,24 0,6 0,11 0,17 0,13 -2,18 -13,26 -14,10 -28,17 -45,23 -15,6 -33,16 -43,28 -10,12 -23,26 -41,25 -11,-1 -22,-11 -31,-16 -4,-2 -7,-3 -11,-6 -7,-5 -16,-8 -24,-13 -8,-6 -15,-10 -23,-13 -9,-3 -26,-5 -36,-2 -10,3 -17,12 -22,20 -5,7 -15,18 -16,27l0 3c2,6 -4,11 -6,16 -2,5 -3,10 -5,14 -2,6 -5,11 -7,17 -1,5 -1,12 -3,18 -1,8 -2,15 -8,21 -9,9 -19,12 -30,17 -20,10 -39,24 -57,37 -14,10 -31,21 -50,17 -9,-2 -15,-11 -22,-17 -5,-5 -10,-9 -15,-14 -4,-5 -8,-10 -13,-13 -8,-4 -21,-6 -29,-2 -6,3 -9,11 -11,17 -4,7 -7,14 -12,21 -7,8 -11,15 -21,18 -12,3 -23,-6 -32,-12 -7,-4 -17,-10 -24,-3 -4,4 -5,11 -7,16 -2,6 -5,9 -10,14 -8,8 -16,19 -28,22 -9,2 -21,0 -30,0 -12,0 -21,-5 -33,-5 -14,0 -23,7 -34,16l-1 3c-9,-1 -16,4 -22,8 -9,5 -17,9 -27,11 -8,1 -14,2 -22,2 -11,0 -19,-2 -30,-6 -14,-5 -34,-1 -47,6 -7,4 -15,10 -20,16 -6,8 -9,17 -15,24 -6,8 -14,14 -19,23 -5,7 -10,16 -16,21 -14,12 -39,5 -53,0 -7,-3 -15,-7 -23,-8 -10,0 -19,1 -29,4 -13,3 -18,5 -25,16 -6,9 -14,17 -22,24 -6,4 -10,8 -16,9 -6,1 -13,0 -19,0 -13,0 -26,-3 -39,-3 -11,0 -19,0 -29,4 -4,1 -8,3 -12,4 -4,2 -10,3 -14,6l-21 10c-20,0 -37,15 -54,23 -9,4 -19,8 -27,14 -10,7 -21,14 -30,21 -8,7 -15,14 -23,20 -4,3 -7,7 -11,9 -4,3 -9,5 -13,8 -6,4 -12,9 -18,13 -7,6 -16,9 -24,14 -4,3 -14,12 -19,8 -1,-2 1,-12 0,-15 0,-4 -2,-7 -2,-12 1,-9 -2,-17 -4,-26 -2,-11 -3,-23 -4,-34 -1,-18 -10,-35 -23,-48 -8,-7 -22,-18 -32,-18 -8,-1 -20,-2 -27,0 -10,2 -18,20 -21,28 -6,16 -9,33 -16,48 -5,11 -12,22 -19,32 -3,4 -8,11 -12,14 -5,2 -11,1 -15,6l-3 0c-27,0 -54,0 -82,0 -21,0 -45,1 -62,-12 -9,-7 -13,-16 -17,-26 -4,-7 -4,-8 -12,-11 -6,-3 -14,-6 -19,0 -9,11 -12,27 -21,39 -9,12 -25,16 -37,24 -12,7 -25,13 -39,19 -8,4 -17,8 -25,12 -6,3 -11,8 -17,11 -23,13 -48,24 -58,50 -4,9 -2,20 -2,29 0,20 -1,41 5,60 7,23 16,44 27,66 3,6 6,12 7,19 1,6 0,12 0,18 0,15 -6,24 -13,36 -5,7 -11,12 -18,16 -7,4 -14,3 -21,3 -12,0 -23,0 -34,0l-3 0c-9,1 -14,-8 -21,-12 -9,-7 -13,-15 -20,-24 -12,-14 -23,-29 -41,-36 -11,-4 -24,-2 -32,6 -10,9 -21,17 -31,26 -10,10 -18,23 -28,31 -8,8 -18,14 -27,20 -9,5 -17,8 -27,7 -4,0 -8,0 -13,-2 -4,-2 -7,-5 -11,-8 -15,-11 -35,-15 -52,-21 -18,-7 -37,-3 -55,-7 -7,-2 -15,-1 -23,-1 -3,0 -8,-1 -10,1 -3,3 -2,11 -1,14 1,9 7,20 -2,25 -9,6 -21,9 -31,10 -14,1 -28,2 -42,2 -10,0 -20,0 -31,0l-2 0c-11,1 -21,-5 -31,-9 -8,-4 -19,-8 -28,-9 -19,-3 -40,-1 -56,7 -9,5 -18,10 -26,15 -8,4 -18,10 -26,12 -7,1 -16,0 -24,0 -9,0 -19,-1 -28,0 -21,0 -34,22 -39,40 -2,7 -3,14 -3,21 1,11 13,22 19,33 7,10 12,22 18,33 4,8 5,14 5,22 1,12 -7,15 -16,21 -8,6 -13,13 -20,18 -7,5 -18,12 -27,11 -16,-3 -25,-19 -37,-29 -5,-4 -11,-8 -16,-13 -4,-5 -8,-10 -12,-15 -8,-9 -17,-17 -24,-26l-2 -3c-6,-10 -17,-22 -27,-27 -8,-5 -16,-5 -25,-5 -10,1 -21,5 -30,10 -3,2 -7,5 -10,7 -6,3 -13,4 -17,8 -5,4 -6,9 -9,14 -2,5 -6,8 -10,12 -4,4 -7,8 -10,11 -7,5 -15,6 -23,9 -12,3 -23,7 -37,8 -11,1 -35,9 -44,-3l-19 6c-10,0 -20,0 -29,0 -4,0 -8,0 -13,0 -5,0 -8,1 -13,2 -9,2 -19,0 -28,2 -11,2 -23,4 -35,7 -14,4 -28,0 -41,3 -12,2 -24,4 -35,8 -13,4 -13,17 -15,28 -1,5 -3,10 -4,16 0,4 1,9 1,14 -1,5 -3,10 -3,15 0,7 -1,10 -5,15 -9,11 -20,1 -31,-2 -7,-1 -18,-2 -25,2 -8,5 -12,12 -18,18 -3,4 -10,7 -15,10 -11,6 -21,-6 -30,-12 -10,-6 -21,-13 -32,-16 -18,-5 -42,-4 -60,4 -14,7 -29,14 -44,19 -20,6 -39,16 -59,21 -14,3 -28,9 -41,14 -10,4 -21,12 -32,13 0,17 0,35 0,52 0,16 -3,30 -5,45 -1,7 -4,16 -6,23 -2,7 -4,17 -8,24 -3,6 -10,13 -15,18 -4,5 -8,17 -13,18 -7,-3 -9,-16 -14,-21 -8,-9 -20,-16 -26,-26 -2,-5 -3,-10 -4,-15 -2,-7 -3,-14 -5,-21 -1,-5 -3,-10 -4,-16 0,-6 1,-13 0,-19 -5,-28 -2,-56 -2,-83 0,-5 0,-11 -5,-13 -6,-2 -11,2 -16,3 -12,1 -25,2 -37,4 -10,3 -17,5 -26,11 -12,8 -21,16 -31,26 -15,13 -41,27 -61,21 -9,-2 -14,-12 -22,-17 -5,-4 -12,-7 -18,-11 -11,-7 -21,-9 -34,-9 -10,1 -22,5 -31,8 -14,5 -6,14 -2,23 12,23 9,49 10,74 0,13 -4,22 -14,29 -6,5 -11,6 -18,8 -6,1 -12,5 -19,6l0 -3c-20,3 -22,-30 -26,-42 -3,-8 -7,-18 -13,-24 -4,-4 -9,-6 -13,-10 -6,-5 -11,-10 -17,-14 -15,-13 -38,-25 -41,-47 -1,-8 -6,-21 -16,-21 -10,1 -22,8 -31,12 -7,3 -13,9 -18,15 -5,5 -8,13 -14,17 -3,4 -8,6 -11,10 -8,10 -13,20 -20,30 -8,13 -21,22 -32,32 -2,2 -8,7 -12,3 -2,-1 -2,-11 -3,-13 -2,-13 -4,-26 -5,-39 -1,-7 -4,-13 -6,-19 -3,-11 -5,-24 -13,-32 -8,-9 -18,-10 -26,-18 -5,-4 -10,-6 -14,-10 -5,-5 -9,-11 -13,-16 -6,-11 -9,-29 -20,-37 -2,-1 -4,-1 -6,-2 -3,-1 -5,-4 -8,-5 -2,-2 -4,-2 -7,-3 -3,-2 -4,-6 -8,-5l-3 0c-7,0 -14,-1 -20,0 -7,2 -12,4 -19,6 -12,2 -25,11 -35,18 -6,4 -10,10 -16,15 -7,5 -9,7 -11,15 -2,6 -2,11 -2,17 0,8 -2,14 -2,21 -1,14 1,23 5,37 2,6 3,13 6,19 3,6 8,12 11,18 4,9 10,22 9,33 -2,13 -10,29 -24,29 -6,1 -15,2 -21,0 -8,-2 -15,-12 -20,-17 -12,-13 -19,-29 -29,-43 -9,-13 -19,-20 -35,-21 -5,0 -13,-1 -18,0 -5,1 -12,7 -16,11 -9,8 -19,16 -27,25 -10,11 -2,27 3,39 3,5 5,12 8,17 4,6 11,10 14,16 6,9 7,27 19,31 8,2 19,0 27,0 10,0 19,-1 28,-3 14,-2 30,-4 44,-1 33,6 34,51 34,78l0 2c-13,3 -23,25 -31,34 -9,11 -17,25 -24,37 -12,20 -27,39 -37,61 -4,10 -15,19 -23,25 -8,6 -18,11 -26,15 -6,2 -11,3 -17,4 -5,2 -10,4 -15,5 -5,1 -10,0 -16,3 -5,2 -10,4 -15,7 -8,4 -18,10 -19,19 -1,4 0,8 0,11 0,5 -2,12 0,16 2,4 13,10 17,13 7,6 15,11 22,16 9,6 19,13 29,18 11,6 21,5 33,3 5,-2 14,-5 20,-3 6,1 11,8 16,11 11,6 17,18 26,26 8,7 16,14 27,16l2 0c27,0 53,0 79,0 11,0 21,-2 32,-4 8,-2 14,-4 21,-9 5,-5 6,-7 13,-9 8,-3 15,-8 23,-10 14,-3 27,-3 40,-3 14,1 26,10 33,21 5,10 13,21 14,32 2,10 3,19 3,29 0,6 0,11 0,16 0,8 -2,14 -4,21 -2,6 -1,12 -4,18 -2,4 -5,9 -7,13 -7,12 -20,15 -33,20 -10,4 -20,8 -30,10 -10,3 -18,2 -28,2 -9,0 -18,-2 -25,-7 -5,-4 -9,-7 -14,-11 -5,-5 -10,-6 -16,-10 -14,-11 -28,-22 -43,-32 -8,-4 -21,-8 -30,-5 -11,4 -18,22 -22,32 -2,6 -2,13 -2,20 1,6 5,11 6,17l-6 23c-6,5 -2,22 -2,29 0,8 2,14 2,22 1,12 5,22 8,33 2,10 4,20 8,30 3,9 9,16 13,25 2,5 4,12 10,14 4,1 9,0 13,0 12,0 23,0 35,0 16,0 30,4 46,5 9,1 17,6 25,10 12,8 17,18 24,30 9,15 13,31 20,47 5,9 6,18 16,24 9,6 18,10 28,10 12,1 19,-1 29,-8 9,-6 17,-11 25,-18 6,-6 12,-12 18,-19 5,-5 10,-6 15,-10l3 0c5,0 13,-2 17,2 4,4 4,14 6,19 6,16 10,32 19,47 7,10 9,23 18,32 7,6 14,13 22,19 17,13 35,25 55,35 13,6 26,12 39,18 15,7 30,12 46,14 13,2 26,1 38,4 8,2 14,2 21,5 6,2 13,5 19,4l0 3c3,4 4,12 7,17 3,5 6,10 8,15 3,10 8,19 8,29 1,10 0,20 0,30 0,4 1,8 0,12 -2,6 -2,12 -3,18 -1,7 -5,14 -8,21 -5,11 -11,22 -18,33 -11,19 -29,35 -47,48 -6,5 -8,6 -15,6 -5,0 -9,0 -14,0 -14,-1 -25,-10 -35,-18 -5,-5 -12,-7 -17,-12 -5,-5 -11,-9 -17,-13 -10,-7 -19,-15 -30,-21 -6,-3 -10,-4 -16,-5 -4,-1 -7,-3 -11,-3 -10,2 -23,13 -30,19 -21,18 -43,36 -70,44 -35,10 -74,-3 -99,-29 -5,-5 -7,-11 -12,-16 -5,-5 -11,-9 -14,-16 -2,-5 -3,-9 -6,-14 -4,-4 -8,-8 -8,-14l-3 -3c-10,-1 -18,8 -26,12 -5,2 -9,2 -14,4 -7,3 -12,6 -20,9 -5,1 -9,2 -14,4 -5,2 -8,3 -13,3 -10,0 -26,3 -34,-1 -5,-3 -9,-7 -12,-11 -5,-4 -9,-7 -14,-10 -9,-6 -18,-14 -29,-15 -5,-1 -12,1 -16,3 -5,3 -11,5 -15,8 -13,10 -27,19 -40,28 -9,7 -18,14 -23,24 -6,10 -4,26 -4,38 0,8 0,17 0,25 0,11 -3,22 -8,32 -2,5 -5,9 -8,13 -3,5 -3,9 -8,12 -11,8 -20,3 -32,6 -13,2 -27,16 -37,24 -12,11 -19,22 -25,36 -7,15 -8,31 -20,44 -4,4 -7,10 -12,14 -5,6 -13,9 -20,13 -12,8 -20,5 -33,2 -8,-2 -37,-20 -44,-10l-18 19c0,20 0,40 0,60 0,16 4,43 17,54 10,9 26,15 39,18 16,3 33,9 49,16 9,5 10,12 10,22 0,9 1,19 -1,28 -4,19 -14,35 -20,54 -4,15 -5,30 -8,44 -2,7 -4,16 -2,23 3,10 16,12 26,12 7,0 15,1 21,0 4,-1 6,-3 10,-4 5,-2 11,-2 16,-4 9,-2 16,-3 24,-3 15,0 20,11 29,21 10,12 15,26 21,40 4,9 5,19 7,28 1,5 5,10 3,16l0 3c0,30 1,60 0,90 0,9 3,17 3,25 0,9 0,17 0,26 0,16 -9,30 -20,41 -3,4 -8,6 -12,10 -3,4 -5,8 -8,11 -9,8 -14,19 -22,28 -4,4 -8,6 -11,11 -3,3 -5,6 -8,9 -6,7 -14,14 -22,17 -7,3 -14,5 -22,8 -8,2 -17,3 -25,5 -10,2 -20,4 -28,12 -10,10 -18,21 -27,30 -9,9 -15,18 -26,24 -10,5 -25,2 -36,2 -18,0 -37,-1 -55,2 -8,1 -13,2 -20,5 -5,2 -10,5 -16,4l-26 26c0,9 -6,12 -11,19 -4,5 -6,13 -10,19 -9,14 -18,29 -27,44 -4,6 -7,13 -13,18 -8,6 -16,12 -25,16 -12,5 -23,10 -35,13 -5,2 -10,4 -16,5 -5,1 -11,0 -16,0 -15,0 -29,5 -44,5 -10,1 -20,0 -29,0 -16,0 -34,3 -48,-2 -15,-5 -57,-33 -58,0 0,11 0,22 0,34 0,6 0,12 0,19 0,10 1,7 8,12 3,2 4,5 6,8 2,3 6,5 7,8 4,5 5,12 7,18 4,15 2,31 6,46 4,16 4,26 24,25 6,0 10,2 15,3 5,1 9,0 13,0 4,1 8,2 12,3 28,6 61,2 87,17 20,12 26,40 39,58 10,15 31,23 47,29l3 0c6,5 16,7 24,9 7,1 14,2 21,4 4,0 8,-1 12,0 4,1 8,2 11,3 3,0 8,1 10,3 9,7 1,18 -4,25 -7,11 -15,20 -22,30 -7,10 -12,25 -15,37 -3,12 -3,24 -3,37 0,9 -2,18 1,27 2,7 5,15 7,22 3,11 11,18 21,22 8,4 16,7 25,8 8,2 18,1 27,3 20,3 40,1 59,1 15,1 30,3 45,3 21,0 48,-3 64,13l3 0c11,0 19,0 27,7 10,7 20,13 29,22 14,17 20,41 31,60 10,17 19,36 36,46 10,6 19,10 29,14 4,2 7,3 11,4 6,1 11,5 16,7 13,5 27,9 39,17 8,5 14,16 20,23 7,10 10,22 19,30 7,7 16,15 24,19 9,5 20,9 29,8 10,-1 17,-8 23,-16 4,-6 8,-9 14,-14 6,-4 10,-10 16,-14 12,-9 25,-9 39,-9 13,0 28,-2 39,6 7,4 13,12 16,20 3,10 1,24 1,35 0,11 0,23 0,34l3 35c7,7 15,14 23,22 8,8 12,17 23,17 11,0 20,0 31,3 10,2 25,6 32,13 4,5 8,12 11,16 4,4 7,9 8,14 4,12 6,24 5,37 -1,22 -30,34 -48,40 -9,3 -17,5 -25,10 -14,8 -16,16 -16,30 0,22 0,42 0,63 0,13 2,27 -2,38 -3,9 -11,17 -18,24 -3,3 -7,6 -9,10 -3,4 -4,11 -6,16 -1,4 -2,7 -2,11 0,8 -2,14 -3,22 -1,21 -5,42 -7,64 -1,11 -3,22 -4,32 -2,12 -1,24 -3,35 -2,13 0,27 -2,40 -1,7 -2,14 -2,21 0,12 -3,23 -3,34l0 3c0,6 -2,10 -2,15 -1,7 -1,13 -5,19 -4,6 -11,10 -17,14 -7,5 -15,7 -23,13 -11,8 -23,13 -34,21 -9,6 -19,12 -28,18 -14,10 -28,19 -44,25 -27,10 -51,26 -78,37 -19,8 -36,18 -55,23 -21,6 -41,18 -59,29 -13,7 -29,10 -41,21 -22,0 -45,1 -67,-4 -8,-2 -17,-2 -26,-4 -8,-2 -18,-4 -27,-6 -29,-4 -58,-10 -88,-17 -9,-2 -18,-6 -27,-8 -4,-1 -8,-1 -12,-2 -5,0 -11,-1 -16,-2 -4,0 -6,-2 -10,-3 -5,0 -10,0 -16,0 -11,0 -25,-2 -36,-5 -9,-3 -19,-4 -28,-6 -7,-2 -17,1 -23,-2 -6,-3 -8,-13 -9,-19 -4,-11 -12,-21 -18,-31 -6,-9 -9,-22 -16,-31 -4,-5 -10,-10 -15,-13 -4,-4 -9,-5 -13,-8 -11,-7 -21,-19 -31,-26 -6,-5 -20,-16 -18,-25 1,-7 10,-14 14,-19 5,-8 11,-14 16,-22 4,-8 5,-11 -2,-19 -4,-5 -9,-9 -15,-13l-19 -13c-4,1 -11,-4 -15,-5 -5,-2 -8,-2 -13,-3 -9,-1 -17,-6 -26,-7 -6,-2 -21,-3 -25,2 -4,3 -5,10 -8,15 -5,8 -10,16 -16,23 -9,13 -16,27 -24,41 -4,6 -8,12 -11,19 -3,6 -3,13 -6,19 -13,29 -25,58 -35,88 -2,6 -6,9 -9,13 -1,4 -2,7 -3,10 -6,16 -16,30 -23,45 -6,12 -12,24 -20,34 -4,4 -7,9 -11,13 -5,7 -7,5 -15,6 -21,2 -40,10 -61,14 -18,4 -35,6 -52,10 -8,1 -17,2 -25,2 -4,0 -9,1 -12,0 -5,-3 -3,-11 -3,-16 0,-19 0,-38 0,-57 0,-12 4,-28 -7,-37 -11,-8 -25,-5 -37,-1 -6,2 -11,3 -16,4 -6,1 -17,6 -21,10l-3 0c-14,0 -30,0 -44,0 -9,0 -17,1 -26,-2 -11,-3 -23,-3 -34,-8 -15,-7 -30,-11 -42,-22 -9,-8 -16,-18 -24,-28 -6,-7 -10,-12 -18,-18 -8,-6 -18,-11 -29,-14 -14,-4 -31,-8 -46,-8 -16,0 -32,-3 -47,-7 -7,-2 -14,-2 -20,-4 -9,-3 -13,-13 -20,-18l0 -2c-8,-9 -17,-18 -26,-27 -4,-4 -6,-9 -10,-13 -3,-3 -8,-5 -11,-8 -6,-5 -9,-11 -15,-15 -7,-5 -12,-10 -19,-16 -4,-4 -8,-8 -13,-11 -6,-4 -12,-6 -18,-11 -16,-13 -37,-28 -58,-31 -10,-1 -21,-5 -32,-5 -10,-1 -18,-1 -28,-5 -10,-3 -16,-5 -20,-15 -4,-9 -6,-20 -6,-30 0,-10 -4,-23 -8,-31 -3,-7 -8,-12 -10,-19 -2,-6 -4,-10 -7,-16 -3,-7 -1,-15 -1,-22 0,-6 -1,-12 0,-18 0,-6 1,-11 2,-17 3,-20 8,-46 -10,-61l0 -2c1,-6 -4,-11 -6,-16 -2,-5 -2,-9 -4,-13 -3,-7 -7,-14 -9,-21 -4,-10 -10,-18 -12,-29 -2,-10 2,-21 -1,-32 -6,-21 -27,-36 -50,-39 -12,-2 -12,8 -16,16 -4,10 -14,22 -23,28 -7,5 -17,16 -26,9 -9,-7 -11,-21 -18,-29 -7,-7 -12,-16 -18,-22 -5,-3 -12,-8 -17,-10 -8,-3 -11,-1 -15,6 -14,20 -23,46 -51,49 -12,1 -27,2 -36,-9 -5,-8 -11,-15 -18,-22 -4,-5 -8,-11 -11,-17l-16 -15c-10,0 -22,-2 -31,2 -6,2 -12,4 -18,6 -9,4 -18,8 -28,11 -6,2 -15,7 -20,2 -4,-4 -2,-8 -3,-13 -1,-4 -3,-7 -4,-11 -3,-5 -7,-17 -13,-18 -6,0 -10,5 -14,8 -4,2 -9,6 -14,5 -10,0 -12,-11 -18,-17 -5,-6 -14,-9 -21,-9 -11,-1 -14,3 -21,10 -12,13 -15,35 -18,52 -3,16 5,32 8,48 2,14 7,26 7,40 1,8 3,22 0,28 -4,1 -9,0 -13,0 -6,0 -11,2 -17,3 -11,3 -22,7 -33,10 -21,7 -43,17 -66,16 -16,0 -33,2 -50,0 -16,-2 -33,-12 -46,-22 -16,-12 -34,-18 -49,-33 -5,-6 -13,-10 -18,-16 -8,-12 -17,-24 -25,-35 -17,-25 -30,-53 -45,-78 -6,-10 -11,-21 -17,-31 -2,-5 -5,-9 -8,-13 -2,-6 -3,-12 -7,-16l-3 -3c-7,0 -13,0 -20,0 -12,0 -24,3 -36,6 -21,5 -42,14 -64,15 -40,3 -79,0 -116,-11 -8,-2 -18,-12 -23,-18 -3,-3 -6,-7 -9,-10 -4,-5 -5,-12 -9,-17 -8,-9 -14,-15 -25,-10 -12,6 -25,11 -37,17 -5,3 -9,6 -13,9 -3,2 -11,3 -12,6 -3,4 3,8 5,12 3,4 4,8 6,13 5,17 8,44 -1,62 -4,9 -20,10 -29,7 -3,-1 -4,-4 -6,-5 -4,-2 -7,-3 -10,-6 -5,-5 -9,-10 -15,-14 -10,-8 -16,-20 -26,-29 -10,-11 -22,-20 -33,-30l-3 0c-7,-1 -15,6 -21,10 -9,6 -20,8 -29,14 -4,3 -7,8 -10,12 -3,3 -7,5 -9,9 -6,10 7,26 11,35 5,11 10,22 14,34 3,6 5,20 -1,26 -6,6 -23,6 -31,6 -14,-1 -26,-17 -37,-24 -4,-3 -15,-17 -21,-13 -2,2 -3,12 -5,15 -3,4 -8,8 -11,11 -6,5 -12,9 -18,13 -5,3 -9,6 -14,8 -4,2 -11,4 -15,2 -5,-2 -8,-8 -13,-10 -11,-6 -19,-14 -31,-16 -5,-1 -9,-4 -14,-5 -6,-1 -12,-1 -17,-1 -8,0 -22,-1 -27,6 -2,3 -1,15 0,19 2,5 2,10 2,16 0,10 0,19 0,30 0,13 3,25 3,38 0,11 2,21 3,32 0,9 -2,19 0,28 2,10 4,21 4,31 0,5 0,10 0,15 1,5 4,9 3,14l0 3c-10,2 -18,13 -27,18 -10,6 -19,13 -29,20 -18,12 -36,23 -54,34 -9,5 -18,9 -26,15 -5,3 -9,5 -14,7 -6,4 -11,5 -18,8 -17,8 -35,16 -55,16 -7,0 -15,-1 -22,0 -13,1 -12,10 -15,21 -5,16 -25,44 -46,35 -10,-4 -17,-13 -27,-16 -6,-2 -11,-5 -16,-6 -4,-2 -14,-4 -18,-7 -8,-7 -4,-20 -6,-29 -2,-9 -8,-19 -15,-26 -9,-8 -19,-4 -29,-6 -11,-3 -24,-14 -29,-23 -5,-9 -7,-17 -11,-26 -3,-9 -8,-16 -11,-24 -5,-12 -15,-19 -23,-29l-25 -2c-13,1 -24,10 -36,15 -6,3 -24,7 -28,3 -4,-4 -4,-11 -8,-16 -4,-5 -10,-10 -15,-15 -8,-7 -17,-13 -25,-20 -7,-7 -13,-17 -20,-25 -27,-27 -51,-58 -76,-86 -9,-10 -18,-20 -27,-30 -3,-4 -9,-11 -10,-16 -2,-8 4,-10 7,-16 1,-4 1,-7 3,-10 5,-9 11,-15 15,-25 3,-6 6,-13 11,-19 2,-3 9,-10 10,-14 1,-9 -17,-17 -25,-20 -14,-5 -25,-12 -39,-17 -7,-4 -18,-7 -27,-4 -14,4 -20,18 -36,17 -17,-1 -27,-15 -40,-24 -6,-5 -15,-7 -21,-12 -7,-7 -9,-15 -18,-21 0,-25 0,-50 0,-76 0,-10 2,-23 -7,-31 -5,-4 -8,-3 -14,-3 -7,0 -10,-3 -16,-5 -6,-2 -10,-4 -15,-7 -7,-5 -15,-6 -22,-9 -7,-3 -14,-7 -21,-11 -7,-4 -14,-7 -21,-11 -5,-3 -8,-7 -12,-10 -6,-4 -15,-7 -21,-9 -9,-2 -26,-5 -32,3 -4,5 -5,14 -7,20 -3,5 -4,6 -4,11 0,10 -1,19 3,28 5,12 13,22 20,33 7,12 14,25 20,37 6,12 10,24 14,37 2,4 4,8 4,12 1,9 -5,13 -9,20 -15,26 -16,51 -16,80 0,12 0,23 4,34 3,10 9,18 12,27 3,9 5,18 8,26 6,16 15,30 19,45 4,12 20,27 17,39l4 4c3,22 -18,46 -32,60 -10,10 -19,13 -32,17 -8,3 -21,11 -29,8 -10,-4 -10,-17 -24,-14 -11,2 -16,19 -25,26 -7,5 -21,20 -31,16 -6,-2 -11,-14 -15,-18 -5,-5 -11,-8 -16,-14 -6,-7 -16,-14 -17,-24 0,-9 6,-16 4,-26 -3,-25 -10,-50 8,-71 17,-20 29,-39 40,-63 10,-21 27,-44 27,-68 2,-9 -15,-26 -22,-32 -10,-11 -19,-22 -31,-30 -14,-10 -27,-19 -39,-32 -5,-5 -10,-11 -15,-16 -7,-7 -7,-13 -12,-21 -7,-11 -14,-19 -16,-33 -2,-11 -1,-20 -4,-31 -3,-8 -14,-23 -23,-26 -8,-2 -21,0 -30,0 -11,0 -26,3 -35,-3 -11,-6 -7,-18 -8,-29 0,-16 -3,-29 -12,-41 -6,-7 -9,-10 -15,-15 -8,-6 -8,-8 -8,-18 0,-26 4,-56 -9,-80 -8,-13 -14,-27 -20,-40 -8,-14 -20,-24 -31,-35 -7,-9 -11,-17 -22,-23 -7,-4 -14,-7 -21,-12 -14,-10 -15,-23 -22,-37 -5,-11 -9,-25 -21,-25 -8,-1 -13,2 -21,5 -7,3 -13,2 -21,2l-35 -7c-20,0 -34,-10 -48,-23 -6,-5 -11,-11 -16,-16 -7,-7 -7,-11 -7,-20 0,-13 2,-29 -3,-41 -2,-5 -4,-11 -7,-15 -8,-11 -21,-13 -32,-20 -14,-9 -25,-23 -33,-37 -11,-18 -12,-32 -6,-52 3,-12 3,-22 3,-34 0,-13 2,-28 -2,-39 -7,-17 -21,-27 -33,-40 -6,-6 -10,-14 -16,-21 -8,-9 -16,-17 -24,-26 -9,-11 -20,-23 -27,-35 -9,-15 -15,-33 -29,-43 -11,-8 -25,-2 -34,5 -7,5 -11,7 -20,6 -12,-1 -16,-11 -23,-21 -8,-13 -7,-28 -23,-36 -13,-8 -29,-1 -43,-3 -19,-3 -20,-32 -43,-25 -17,4 -20,31 -35,40 -12,6 -17,6 -29,-1 -9,-6 -17,-12 -27,-14 -8,-2 -17,-3 -23,3 -7,7 -11,16 -23,14l-4 0c-15,1 -23,-6 -35,-15 -10,-7 -19,-13 -29,-20 -4,-5 -10,-7 -16,-11 -6,-5 -12,-11 -18,-17 -6,-5 -11,-6 -17,-10 -6,-4 -9,-9 -17,-9 -29,2 -32,41 -59,40 -12,0 -23,-9 -34,-15 -8,-4 -17,-3 -27,-3 -11,0 -18,9 -30,12 -13,4 -25,4 -33,-9 -13,-19 -17,-42 -24,-64 -5,-13 -10,-26 -14,-39 -6,-17 -17,-28 -24,-44 -6,-13 -11,-21 -22,-31 -10,-10 -21,-18 -25,-32 -2,-7 0,-13 -2,-20 -1,-7 -3,-12 -3,-19 0,-14 0,-28 0,-41 0,-15 1,-27 -4,-41 -2,-6 -5,-13 -6,-19 -2,-6 -5,-12 -4,-18l0 -4c-13,-1 -24,-8 -36,-10 -5,-1 -12,0 -17,0 -8,0 -8,0 -12,7 -6,12 -13,18 -28,13 -11,-3 -22,-23 -35,-10 -5,5 -4,14 -9,20 -4,4 -12,11 -17,14 -12,9 -31,12 -45,9 -15,-2 -22,-11 -31,-20 -14,-14 -28,-20 -47,-19 -8,0 -17,1 -25,4 -12,4 -19,16 -29,24 -13,10 -28,18 -42,28 -4,4 -10,6 -15,9 -6,5 -12,11 -17,17 -9,9 -12,14 -11,29 3,29 23,53 28,81 3,14 1,29 1,44 0,13 -5,26 -22,23l-25 11c-9,0 -19,-1 -28,1 -11,3 -22,5 -33,7 -8,1 -16,3 -24,5 -11,3 -20,10 -21,-6 -1,-22 22,-34 28,-54 3,-13 12,-39 -7,-42 -17,-3 -34,-10 -50,-18 -6,-3 -15,-15 -23,-10 -3,2 -2,7 -4,10 -7,9 -18,13 -25,22 -6,9 -13,17 -21,25 -6,5 -15,17 -21,17 -2,0 -16,-7 -19,-7 -4,-2 -6,-5 -10,-6 -11,-4 -24,-7 -35,-10 -11,-3 -14,-5 -15,-17 0,-9 -3,-22 -8,-30 -4,-8 -13,-17 -20,-21 -11,-7 -14,-9 -14,-21 0,-17 -2,-39 7,-53 7,-9 19,-3 28,-1 11,2 23,1 33,1 12,-1 14,-5 13,-17 0,-5 -2,-7 -3,-12 -3,-6 -3,-11 -5,-17 -1,-7 -2,-14 -6,-21 -6,-12 -14,-12 -25,-18 -18,-11 -29,-31 -42,-47 -15,-18 -37,-14 -58,-14 -12,0 -24,-2 -35,-8 -11,-5 -19,-16 -30,-20 -20,-7 -39,-11 -61,-7 -15,3 -28,7 -43,7 -18,0 -26,-12 -35,-25 -6,-10 -12,-26 -15,-37 -3,-14 -7,-24 -7,-38l0 -3c-13,0 -26,-1 -39,-4 -14,-2 -28,-7 -42,-3 -2,7 -1,17 -1,24 0,9 -1,18 0,26 2,15 13,30 22,42 6,8 8,17 14,25 4,6 10,12 15,18 5,6 10,15 10,25 0,10 -6,15 -11,23 -5,8 -11,42 -24,29 -16,-14 -37,-22 -53,-37 -15,-15 -29,-27 -39,-46 -3,-6 -6,-11 -11,-15 -14,-12 -17,-5 -28,4 -15,10 -26,20 -36,34 -5,7 -9,13 -7,22 1,9 8,16 12,25 8,17 16,32 16,52 0,20 -4,37 -25,43 -15,4 -27,-19 -42,-14 -9,3 -7,14 -7,21 -1,10 -3,21 -6,31 -3,8 -5,16 -10,23 -8,8 -14,7 -24,7 -16,-1 -50,-7 -57,10 -2,4 -2,8 -3,12 -2,6 -6,8 -10,13 -7,9 -9,11 -21,11 -10,-1 -16,-1 -22,7 -6,10 -6,23 -8,33 -7,23 -36,31 -57,35 -24,4 -46,6 -69,6l-4 0c-20,0 -40,0 -60,0 -19,0 -35,-2 -52,7 -15,8 -26,22 -38,35 -7,8 -16,15 -24,22 -4,4 -7,7 -10,11 -4,5 -11,9 -14,14 -9,13 -17,27 -27,40 -12,15 -22,32 -36,47 -5,5 -10,13 -15,17 -11,6 -12,-1 -15,-9 -7,-15 -25,-29 -39,-38 -12,-9 -24,-8 -39,-8 -8,0 -15,0 -23,0 -9,0 -17,3 -26,4 -15,1 -30,1 -45,5 -6,1 -13,4 -20,1 -8,-3 -16,-12 -25,-13 -16,-2 -20,17 -25,28 -7,15 -14,30 -21,44 -6,11 -21,21 -17,36 1,5 7,10 9,14 5,9 9,18 12,27 9,25 20,48 27,73 3,8 7,15 9,23 1,6 2,22 -1,28 -3,6 -15,11 -21,13 -10,4 -21,5 -32,9 -20,7 -39,17 -53,34l-28 0c-22,1 -43,-25 -65,-11 -6,4 -9,10 -13,15 -7,7 -15,14 -22,21 -9,10 -16,20 -25,29 -10,10 -18,19 -26,29 -7,10 -16,14 -26,20 -19,14 -41,25 -64,32 -9,3 -21,7 -32,3 -6,-2 -10,-9 -15,-14 -5,-4 -10,-8 -15,-12 -13,-9 -25,-21 -38,-30 -11,-7 -23,-11 -35,-18 -10,-6 -22,-9 -32,-15 -11,-6 -19,-13 -29,-21 -7,-6 -20,-12 -28,-7 -5,3 -10,12 -14,16 -3,4 -13,12 -13,17 5,5 13,3 19,6 8,6 17,14 23,22 10,12 20,28 27,43 13,28 18,57 18,87 0,19 0,39 0,57 0,6 1,13 0,18 -1,8 -4,14 -4,22 1,37 0,74 0,110l0 4c0,21 0,41 0,62 0,11 0,20 5,30 6,12 10,23 13,35 2,11 4,18 4,29 0,5 0,10 0,15 0,9 -3,15 -4,24 -1,12 -2,27 0,39 2,13 13,25 21,35 5,6 12,10 18,14 4,3 11,6 14,10 8,8 11,27 11,38 0,7 1,14 0,20 0,8 -4,11 -6,18 -5,11 -9,21 -15,32 -7,10 -10,23 -18,33 -8,11 -18,22 -27,32 -19,24 -39,59 -72,65 -11,2 -23,1 -34,1 -13,0 -24,-4 -37,-4 -17,0 -30,2 -43,14 -5,5 -9,10 -14,15 -3,2 -7,4 -10,6 -4,4 -6,10 -12,11l-4 0c-14,-1 -23,-10 -36,-15 -10,-4 -19,-9 -30,-13 -10,-4 -21,-11 -30,-17 -11,-7 -21,-11 -29,-22 -8,-10 -16,-18 -29,-22 -11,-4 -30,-10 -37,-20 -6,-8 -3,-17 -4,-25 -2,-12 -6,-25 -11,-37 -5,-13 -14,-24 -23,-34 -8,-9 -18,-11 -28,-18 -9,-6 -10,-14 -9,-25 1,-12 3,-21 3,-32 0,-26 0,-52 0,-78 0,-19 -9,-43 -25,-56l-25 -17c-7,-6 -12,-17 -17,-25 -6,-10 -13,-19 -18,-29 -4,-8 -11,-13 -15,-21 -5,-8 -5,-16 -9,-25 -13,-33 -26,-65 -36,-99 -6,-19 -14,-35 -24,-52 -4,-8 -9,-15 -14,-23 -2,-3 -1,-5 -5,-9 -5,-7 -16,-9 -22,-14 -18,-13 -35,-25 -50,-42 -16,-17 -30,-35 -45,-52 -7,-8 -15,-14 -24,-21 -9,-7 -16,-16 -26,-21 -6,-4 -14,-4 -21,-7 -11,-5 -21,-4 -33,-4 -16,0 -30,-1 -46,4 -20,5 -45,6 -63,18 -3,2 -4,4 -7,6 -5,5 -12,7 -18,12 -9,6 -19,16 -25,27 -3,6 -4,13 -6,20 -4,9 -9,17 -11,26 -2,8 0,17 -1,25 -2,9 -3,17 -3,26 0,20 1,39 5,59 3,20 6,38 6,59 0,20 3,43 -3,63 -7,27 -10,55 -22,80 -2,4 -4,8 -6,12 -4,8 -4,17 -9,25 -5,7 -21,18 -21,28l0 3c-5,5 -9,11 -14,16 -7,6 -14,12 -20,19 -6,6 -12,13 -19,17 -6,4 -13,6 -20,10 -20,13 -44,17 -66,24 -13,5 -26,9 -39,10 -13,1 -26,7 -38,10 -13,3 -24,4 -36,8 -12,4 -25,5 -37,10 -21,10 -45,24 -53,47 -4,15 -2,33 -2,48 0,15 0,29 0,44 0,15 2,32 -2,47 -3,11 0,21 -3,31 -1,9 -2,14 -2,23 -1,8 -5,15 -7,24 -5,20 -11,42 -19,62 -2,5 -5,10 -8,15 -2,6 -1,11 -3,18 -3,13 -18,29 -27,39 -12,11 -20,25 -31,37 -9,11 -12,24 -12,37 0,13 3,22 7,34 6,16 13,26 25,38 12,12 21,26 35,37 8,7 18,13 25,21 6,6 10,13 17,19 12,11 22,25 31,38 4,5 9,10 13,16 3,5 5,11 8,17 14,22 37,43 38,71 0,49 -1,98 0,147 0,16 -3,17 -18,22 -18,6 -34,14 -52,21 -12,5 -24,15 -36,19 -7,2 -13,3 -20,6 -7,3 -13,6 -20,9 -17,7 -33,9 -49,17 -12,5 -22,13 -34,19 -13,5 -25,16 -34,27 -5,6 -6,9 -7,16 -2,9 -9,18 -7,27l-8 18c0,8 0,17 0,25 0,7 3,14 4,21 1,13 0,25 0,37 0,30 -25,58 -46,77 -7,6 -15,10 -22,17 -6,6 -13,11 -20,18 -13,12 -22,26 -33,40 -19,28 -33,55 -41,88 -4,21 -12,40 -17,61 -4,14 -8,28 -12,41 -7,23 -14,49 -15,73 0,9 -1,19 4,27 3,6 9,11 14,15 10,10 22,19 34,25 29,13 52,42 85,46 18,2 37,0 55,0 23,0 48,-2 71,2 17,4 30,8 44,17 15,10 37,13 48,27 9,-1 22,17 27,23 7,9 12,21 18,31 6,11 13,23 19,35 6,12 6,23 10,35 1,5 3,10 4,15 1,5 -1,11 0,17 1,8 4,14 4,23 0,10 0,19 0,29 0,11 3,21 3,33 0,8 -2,17 4,22 6,5 18,4 25,7 7,2 15,4 23,6 7,3 12,6 19,9 20,9 43,21 57,39 3,4 9,9 12,14 3,4 3,9 5,13 6,10 15,16 11,29 -14,3 -29,-1 -42,-4 -11,-3 -21,-7 -32,-10 -5,-2 -10,-3 -14,-6 -4,-2 -7,-6 -11,-8 -13,-5 -29,-4 -43,-4 -6,0 -15,-1 -21,1 -8,2 -13,7 -21,6 10,-1 22,18 28,25 8,8 12,17 18,27 5,11 10,18 11,31 0,10 0,21 0,32 0,19 0,38 0,57 -1,16 5,33 8,49 7,43 27,84 57,116 8,9 16,20 26,28 11,9 20,15 29,26 4,6 10,9 15,14 4,4 6,9 11,13 5,3 20,9 26,8 4,-4 2,-13 2,-17 0,-7 0,-14 0,-22 0,-10 0,-20 0,-31 0,-9 -1,-17 0,-26 0,-5 2,-19 5,-22 5,-5 19,-6 24,-7 10,0 18,-1 24,7 8,10 11,23 19,32 8,9 20,16 28,25l3 0c9,-1 18,4 26,8 6,3 8,6 13,10 5,4 9,5 15,8 20,11 41,22 61,35 9,5 19,11 28,15 11,5 21,5 32,7 11,2 21,2 32,2 10,1 18,4 28,4 9,0 19,0 29,0 11,0 15,0 24,-7 4,-4 10,-9 15,-11 6,-3 9,-2 16,-3 8,-1 16,-7 24,-1 4,2 6,8 9,12 4,8 8,12 14,18 8,7 13,18 20,27 10,14 20,27 29,42 8,14 17,27 25,40 5,10 9,21 14,31 6,10 13,18 18,29l4 4c0,12 1,20 7,31 12,24 25,48 39,71 13,23 23,46 32,70 11,27 27,51 39,77 7,15 10,30 18,45 3,4 8,7 10,11 3,7 -1,15 7,21l8 25c14,16 29,37 38,57 11,21 29,35 38,57 4,10 10,18 14,28 6,16 14,30 21,45 8,14 17,27 23,41 6,11 8,21 15,31 5,9 9,20 13,30 4,8 9,17 12,26 4,9 6,18 10,27 5,11 14,21 17,32 3,10 4,15 10,23 5,7 7,15 12,21 2,4 6,6 8,10 5,8 10,18 15,26 5,9 9,26 16,32l0 4c0,5 -2,12 0,18 2,3 5,6 7,9 4,8 7,17 11,25 4,9 11,16 16,26 6,12 13,25 21,37 25,37 44,78 71,115 7,11 13,22 19,33 4,9 10,15 14,24 3,9 4,16 4,25 0,11 -3,14 -11,23 -12,14 -26,24 -46,24 -18,-1 -38,0 -56,0 -10,-1 -19,-4 -29,-4 -10,0 -19,0 -28,0 -10,0 -13,-2 -22,-4 -9,-2 -15,-1 -24,-6 -12,-7 -13,-10 -15,-22 -2,-8 -7,-17 -10,-24 -4,-8 -6,-19 -11,-25 -7,-9 -16,-7 -25,-7 -8,0 -16,-1 -24,0 -11,0 -21,4 -32,6 -9,2 -17,5 -26,7 -10,2 -19,3 -28,9 -5,3 -17,7 -18,13 -1,7 18,17 22,22 16,16 27,37 38,56 6,10 10,27 20,32 9,4 24,5 33,6 23,5 50,1 73,1 5,0 10,0 14,1 12,2 23,2 34,4 13,2 27,1 40,3 11,2 23,5 34,6 10,2 20,4 29,8l3 0c26,0 57,-5 82,2 8,2 15,4 23,5 10,2 18,7 28,11 14,6 30,10 45,15 28,8 54,22 81,34 9,4 17,6 26,11 12,7 24,14 36,21 11,7 20,18 31,24 8,6 27,15 14,26 -6,6 -20,7 -28,11 -6,4 -9,10 -15,15 -5,4 -11,5 -17,7 -11,4 -28,5 -39,3 -11,-2 -20,-10 -29,-15 -26,-15 -53,-29 -79,-46 -16,-10 -36,-18 -52,-29 -17,-11 -24,-4 -39,7 -15,11 -29,24 -43,36 -6,6 -45,35 -41,42 6,2 12,-1 19,-2 7,-1 15,0 22,0 13,0 26,-2 38,0 9,2 20,4 29,7 11,4 16,16 23,24 14,19 19,41 35,58 9,8 18,14 28,20 11,7 22,15 33,21 10,6 21,8 31,11 10,4 19,9 29,13 16,5 34,7 51,10 8,2 17,1 25,2 9,2 14,4 23,4 19,0 37,3 57,3l18 13c23,0 46,0 69,0 26,-1 48,-23 65,-42 15,-17 36,-19 57,-20 22,0 51,-5 72,1 24,6 37,27 62,27 31,0 60,-7 91,-7 25,-1 51,0 76,0 21,0 44,4 63,-7 11,-6 21,-21 32,-26 11,-5 25,0 36,-1 29,-3 44,-27 64,-45 12,-9 21,-17 29,-31 4,-7 17,-27 13,-34 -8,-16 -79,-6 -94,-6 -27,0 -53,0 -79,7 -23,5 -44,20 -70,20 -18,1 -49,6 -65,-1 -15,-6 -49,-39 -29,-58 15,-14 61,4 78,5 21,1 25,-5 37,-21 8,-10 18,-19 26,-29 11,-15 53,-80 77,-66 26,15 1,59 2,80 14,-6 25,-23 35,-33 10,-10 18,-18 26,-30 8,-12 10,-18 15,-31 4,-12 7,-30 23,-31 6,7 7,55 25,39 3,-3 4,-18 6,-23 3,-10 7,-22 11,-32 10,-22 23,-29 40,-10 16,18 18,18 40,23 18,3 31,24 35,40 3,13 1,53 24,37 10,-6 19,-39 22,-50 6,-24 -7,-51 15,-69l6 -8c12,0 18,-2 22,11 3,8 7,10 13,16 5,5 7,11 14,15 24,11 29,-39 31,-54 2,-9 -3,-19 6,-24 10,-6 23,-6 29,4 4,6 4,11 8,17 3,3 5,10 8,13 9,7 15,-16 17,-22 5,-17 2,-45 20,-55 10,-6 18,7 22,14 4,7 5,14 11,19 7,5 15,9 24,9 5,0 10,0 15,0 6,-1 10,-5 15,-9 13,-9 24,-19 36,-28 9,-6 15,-18 26,-22 9,-3 17,8 25,2 11,-9 18,-19 31,-25 7,-2 12,-6 18,-10 6,-3 14,-3 22,-3 6,0 12,0 18,0 7,0 11,2 17,3 11,2 25,0 37,0l5 0c7,0 19,-2 25,0 4,2 10,8 13,10 4,4 5,7 8,11 14,16 40,18 58,26 13,6 20,17 31,26 4,3 9,3 12,6 6,5 12,7 18,11 5,4 7,8 11,13 3,3 8,6 12,9 8,7 20,15 32,17 9,2 22,1 31,1 6,-1 10,-3 16,-3 6,-1 13,0 19,0 22,-1 16,33 16,48 0,12 -3,22 -2,33 0,6 -1,12 0,17 1,5 3,9 5,14 3,9 4,16 12,21 8,6 17,13 28,13 4,0 9,-1 13,1 5,3 4,9 6,13 6,11 22,7 32,7 6,0 14,-2 19,1 4,2 10,11 11,15 2,4 1,8 1,12 0,6 2,12 2,18l0 3c11,4 22,10 34,7 14,-3 20,-21 26,-33 3,-4 6,-8 9,-12 5,-9 5,-9 14,-9 11,1 25,-2 30,11 4,10 0,26 -3,36 -2,12 -4,23 -4,35 0,8 -2,14 5,19 7,4 20,4 27,5 6,0 13,1 18,3 9,3 9,6 9,15 0,11 -1,20 -3,30 -1,4 -6,20 -5,22 2,4 15,5 19,6 8,3 19,5 27,5 5,1 11,-1 16,0 10,2 20,5 31,3 12,-2 20,-15 23,-26 2,-7 4,-14 3,-20 -1,-13 -9,-18 -19,-24 -5,-4 -10,-11 -15,-16 -5,-6 -9,-12 -10,-19 -2,-16 18,-17 30,-17 9,0 13,1 20,7 6,5 12,10 20,11 6,2 12,1 18,1 10,0 13,-3 21,-8 9,-5 15,-12 24,-18 8,-6 16,-12 24,-18 16,-11 27,-26 40,-39 8,0 17,-1 25,0 10,1 19,6 27,10 10,5 17,13 27,18 8,5 15,13 23,18 17,10 34,15 52,19 20,5 36,14 54,22 17,7 33,16 52,13 8,-1 14,-7 20,-13 4,-4 13,-10 19,-11 6,-2 16,-1 22,-1 10,1 22,10 28,18 5,7 9,15 15,21 6,9 12,20 21,26 7,5 14,12 21,18 7,5 14,12 21,17 8,6 18,9 27,14 3,2 10,5 12,8 2,3 1,7 1,10l0 3c6,6 10,9 12,17 2,8 2,15 2,23l0 3c0,12 -3,28 2,38 2,3 5,6 7,9 3,2 8,4 9,7 3,6 1,14 -4,18 -6,4 -12,5 -17,12 -4,6 -6,17 -8,24 -2,13 0,28 0,41 0,8 -1,14 -2,21 -1,5 -3,16 -1,20 2,4 3,3 6,5 5,2 6,4 10,7 5,4 9,6 14,11 5,7 14,14 17,21 3,7 7,18 7,25 2,12 0,27 0,40l3 19c0,12 -2,20 -5,32 -3,9 -6,20 -8,29 -2,11 -2,22 -4,33 -2,14 -6,27 -10,40 -6,25 -13,49 -21,73 -3,10 -6,20 -7,29 0,4 1,8 1,12 -1,5 -3,9 -3,13 -4,55 -31,100 -60,146 -7,11 -12,21 -21,30 -7,7 -12,14 -19,21 -8,9 -20,12 -27,21 -7,8 -16,15 -22,25l-2 2c-5,4 -8,9 -11,15 -4,7 -9,14 -14,20 -7,9 -15,17 -23,24 -16,16 -41,30 -49,52 -6,18 -9,36 2,53 2,4 5,6 6,10 4,6 7,8 12,13 9,6 15,14 21,22 12,15 22,31 34,45 4,5 6,9 10,13 6,5 12,7 17,11 3,3 5,6 8,8 6,4 11,4 16,11 6,9 14,16 20,24 8,12 17,19 28,27 8,6 14,14 18,23 2,7 7,18 4,26 -11,2 -21,6 -32,6 -8,0 -15,0 -22,0 -10,0 -20,1 -30,0 -11,-1 -22,-5 -32,-7 -23,-3 -45,-12 -67,-18 -11,-2 -23,-2 -32,-6 -10,-3 -20,-8 -29,-11 -20,-8 -40,-16 -60,-20 -12,-2 -18,-8 -28,-14 -9,-5 -18,-9 -27,-12 -10,-3 -24,-1 -35,-1 -10,0 -20,0 -30,0 -9,0 -20,1 -29,0 -4,-1 -7,-3 -11,-4 -5,-2 -12,-2 -16,-5l-3 0c-5,0 -10,0 -15,2 -7,2 -11,7 -18,9 -11,3 -24,5 -35,8 -19,4 -38,9 -59,9 -13,0 -26,0 -39,-2 -11,-3 -23,-5 -33,-9 -22,-8 -43,-19 -66,-19 -12,0 -23,3 -36,3 -16,0 -30,1 -44,-5 -5,-3 -11,-5 -16,-9 -6,-3 -11,-9 -16,-13 -5,-3 -10,-4 -14,-9 -2,-2 -3,-5 -5,-7 -3,-4 -7,-5 -10,-8 -4,-3 -8,-10 -13,-8 -4,1 -7,10 -9,13 -5,5 -10,10 -15,15 -5,5 -6,11 -11,16 -7,9 -17,19 -28,21 -5,0 -9,0 -13,2 -10,2 -14,5 -19,14 -8,11 -8,25 -20,32 -10,7 -27,11 -39,11 -14,1 -28,0 -40,-7 -15,-8 -34,-15 -45,-28l-21 8c-2,8 -10,15 -15,22 -5,7 -10,13 -15,21 -8,12 -18,23 -26,35 -8,14 -15,28 -24,40 -5,6 -8,11 -13,15 -6,6 -8,10 -12,17 -4,6 -6,11 -8,18 -1,7 0,14 0,21 0,13 0,26 0,39 0,11 0,23 0,33 0,8 -1,13 -4,20 -3,8 -1,16 -5,24 -10,1 -14,-10 -20,-15 -2,-2 -5,-2 -8,-4 -5,-2 -8,-6 -13,-8 -16,-5 -26,13 -36,23 -6,6 -11,12 -17,18 -4,5 -9,9 -17,8 -9,-1 -16,-11 -25,-14 -4,-1 -13,-1 -18,0 -7,1 -12,6 -17,11 -6,4 -15,11 -18,17 -4,9 6,6 11,7 8,2 12,10 15,17 3,6 7,11 8,18 0,9 0,18 -2,27 -2,5 -6,11 -3,17 6,9 16,0 21,7l2 0c4,5 13,13 19,14 4,0 8,-1 11,-1 4,1 7,4 10,6 6,4 12,8 17,11 9,5 16,9 22,16 8,11 5,26 5,39 0,6 -2,16 0,21 2,8 11,11 13,19 4,15 -4,32 12,42 7,5 15,10 23,14 3,1 9,3 11,5 4,3 5,8 6,11 6,13 5,26 5,40 0,12 -3,27 0,39 6,3 20,-11 26,-14 7,-3 16,-8 24,-9 15,-1 29,1 42,8l2 0c10,-1 20,5 29,9 10,4 18,11 27,17 5,3 8,4 12,9 4,4 7,8 11,11 4,4 9,6 12,10 4,4 4,11 4,17 0,5 0,7 -5,10 -3,1 -7,5 -11,6 -4,2 -9,0 -14,1 -4,2 -7,2 -12,2 -9,0 -18,-1 -27,-5 -8,-4 -16,-14 -26,-14 -9,0 -19,-1 -28,1 -8,2 -19,4 -27,2 -6,-2 -10,-7 -14,-11 -5,-4 -10,-5 -15,-8 -9,-4 -20,-11 -30,-6 -17,8 -31,24 -47,36 -9,7 -17,10 -28,14 -10,4 -22,8 -34,5 -10,-3 -23,-12 -31,-19 -10,-9 -20,-16 -31,-22 -11,-6 -22,-14 -30,-24 -7,-9 -5,-22 -13,-30l0 -2c-6,1 -9,-3 -14,-5 -5,-3 -10,-4 -16,-6 -11,-4 -24,-7 -34,-13 -4,-2 -9,-7 -12,-11 -3,-6 -2,-12 -5,-18 -5,-11 -18,-20 -30,-23 -11,-3 -20,7 -28,15 -4,4 -9,7 -13,11 -5,3 -8,7 -12,11 -10,8 -22,6 -33,6 -11,0 -22,2 -32,-4 -6,-5 -5,-10 -10,-16 -3,-4 -8,-7 -13,-8 -12,-4 -19,2 -29,6 -12,5 -19,9 -32,9 -9,0 -16,1 -24,-2 -10,-3 -20,-5 -30,-9 -7,-2 -14,-3 -20,-6 -7,-4 -13,-6 -21,-9 -5,-2 -11,-4 -17,-6 -4,-2 -9,-5 -13,-5 -6,-1 -9,3 -13,6 -6,4 -6,8 -8,15 -4,19 -6,38 -11,57 -3,10 0,25 -5,34 -10,14 -22,-18 -24,-24 -2,-7 -4,-14 -6,-21 -1,-2 -2,-7 -5,-8 -4,-1 -6,2 -6,5l0 3c-4,0 -8,0 -13,0 -6,0 -7,1 -9,7 -3,9 -2,18 -2,28 0,20 0,41 0,62 0,17 0,34 0,51 0,10 2,15 5,24 3,7 5,13 9,19 3,3 6,6 9,10 7,10 14,18 23,25 4,4 7,8 11,11 6,4 11,7 16,11 17,14 41,11 62,11 17,0 37,-3 53,0 11,2 22,3 33,5 11,3 24,6 35,6l3 0c14,0 29,-1 43,-1 13,1 26,7 38,9 8,2 17,5 23,8 28,14 49,35 67,60 8,12 13,28 16,42 2,13 7,27 7,41 0,11 1,23 0,34 0,7 -5,12 -5,20 -1,6 0,12 0,19l0 18c9,1 15,11 21,17 4,2 8,3 12,5 4,4 7,10 10,14 5,7 12,12 16,19 5,10 8,24 10,34 5,20 10,40 12,60 0,4 2,8 2,12 1,4 0,8 1,12 2,6 6,15 5,22l3 0c-1,7 3,16 5,24 4,10 6,22 8,33 7,25 16,48 29,71 3,6 4,12 8,17 5,8 13,12 19,20 2,2 3,6 5,8 2,3 5,4 8,6 4,4 7,10 12,15 4,4 8,9 12,14 4,5 10,9 15,14 6,6 11,14 16,20 4,4 9,10 14,14l2 2c-1,10 13,20 16,27 5,9 11,17 17,25 9,14 20,30 23,47 2,8 1,17 1,25 0,14 0,27 -2,41 -4,26 -9,53 -9,80 0,30 -18,57 -19,87 0,15 -4,39 6,51 3,3 7,9 11,11 4,1 7,0 10,0 11,1 20,15 27,22l3 2c10,1 19,11 27,17 12,7 22,16 32,25 18,13 29,32 46,45 17,14 32,29 46,45 7,9 9,16 22,17 9,0 19,-3 28,-7 8,-4 16,-10 24,-14 7,-3 15,-9 23,-9 9,-1 20,-2 28,2 9,5 17,12 25,18 8,7 16,15 25,22 8,6 10,14 8,24 -1,5 -4,9 -6,13 -2,5 -3,8 -6,12 -3,3 -5,9 -6,14 -1,4 1,8 -3,11 5,0 11,-1 16,0 5,2 11,8 16,11 6,5 12,8 18,13 4,5 10,8 15,13 8,9 14,19 22,28 4,5 11,9 14,15 2,5 1,9 1,14l9 27c0,18 3,35 12,51 5,8 10,16 16,23 7,8 15,15 23,23 9,9 19,16 29,24 8,6 12,19 23,21 8,2 19,-4 27,-7 8,-4 17,-7 26,-9 8,-3 16,-2 24,-5 9,-3 18,-1 27,-3 6,-2 10,-5 15,-5 4,-1 8,0 12,-1 9,-2 18,-2 27,-2 11,0 21,0 32,0 9,0 20,-2 28,3 10,6 10,17 10,27 0,11 2,22 5,32 2,6 4,14 8,17 4,4 8,3 13,3 15,-1 19,-9 29,-18 10,-8 20,-14 33,-15 4,0 7,1 11,1 8,0 15,-4 22,-3l5 0c18,0 32,8 49,11 20,3 41,5 63,5 3,0 9,-1 13,0 4,1 7,4 10,8 8,8 16,17 24,24 7,7 14,16 22,21 5,4 8,5 12,10 4,4 9,7 13,10 9,6 14,13 21,21 3,3 7,5 11,9 3,4 4,11 7,16 4,7 6,16 3,24 -1,6 -6,9 -10,13 -4,4 -4,6 -6,11 -10,19 -26,34 -35,54 -8,22 -16,45 -21,67 -2,10 -7,20 -8,30l0 3c0,9 -1,16 -5,24 -4,8 -8,17 -12,25 -9,14 -16,31 -25,45 -7,12 -10,25 -16,38 -7,16 -11,34 -17,51 -8,22 -17,43 -27,65 -17,41 -29,84 -42,127 -5,19 -11,39 -16,59 -2,8 -2,18 -2,27 0,6 2,17 -3,21 0,21 0,41 0,62 0,20 -1,39 8,59 4,10 10,22 16,30 6,8 9,15 14,24 8,16 13,33 22,49 3,6 4,10 6,16 1,4 1,11 4,14l-2 13c0,6 -1,13 0,19 1,8 5,15 7,24 2,7 3,14 4,22 0,6 2,11 2,17 0,7 3,13 3,20 0,6 -1,11 0,17 2,6 3,10 2,17 0,6 2,11 3,18 3,23 0,48 0,71 0,20 0,39 0,58 10,3 26,-10 34,-14 12,-7 24,-14 36,-20 12,-5 21,-10 32,-17 11,-7 24,-9 35,-16 8,-6 16,-9 24,-14 4,-3 6,-6 10,-8 5,-3 11,-5 16,-8 9,-6 19,-13 28,-19 17,-9 35,-12 52,-19 18,-7 37,-15 55,-23 8,-4 17,-8 25,-11 13,-5 24,-11 37,-14 17,-4 34,-11 51,-16 6,-2 12,-2 17,-4 6,-1 11,-5 17,-7 11,-2 24,-13 35,-11l3 0c6,0 13,0 19,-1 7,-1 12,-5 19,-7 14,-4 28,-9 43,-13 21,-7 43,-11 64,-15 29,-4 58,-12 87,-16 43,-5 86,-15 129,-16 34,-1 67,0 100,0 17,0 35,-1 52,1 20,2 41,3 61,4 6,1 12,3 18,4 5,1 10,1 15,2 11,2 20,6 32,6 14,-1 28,5 43,5 9,0 19,6 27,6l3 0c12,0 21,-1 32,5 11,6 23,10 32,19 8,7 17,12 25,18 8,6 14,13 21,20 18,17 41,28 63,40 29,17 55,38 76,65 17,20 32,41 47,62 14,19 25,37 32,59 6,22 12,43 18,65 4,17 4,34 7,51l0 3c9,-1 20,12 27,17 15,10 28,22 42,33 20,17 38,38 56,56 7,7 12,15 19,22 10,11 22,21 31,32 9,13 19,23 27,36 3,7 8,13 12,20 3,7 9,11 13,18 15,24 28,48 43,73 6,10 10,22 17,34 4,7 8,16 12,23 6,8 10,16 15,24 8,15 17,29 25,44 7,11 11,23 18,34 6,9 12,19 19,27 15,20 32,39 52,55 12,9 24,17 35,26 5,4 11,7 16,10 6,2 13,10 19,9l10 7c7,-4 14,-8 22,-12 9,-4 18,-7 27,-11 7,-4 16,-9 23,-10 6,-2 14,-2 21,-3 13,-2 28,0 42,0 12,0 24,0 36,0 9,0 17,-3 26,-3 7,0 14,0 21,0 10,0 21,0 31,0 13,0 26,0 39,2 5,1 10,1 16,3 6,2 11,7 18,6l-18 -6 57 -3545 1969 -392 1540 1127 826 1128 1010 -143 932 130 331 -150c-1,5 2,10 5,14 2,2 4,5 6,7 2,3 3,5 4,8 2,3 4,6 7,8 2,2 3,5 3,7 2,5 6,9 9,14 3,6 9,11 12,17 4,7 8,13 11,20 4,6 7,11 11,17 2,3 3,6 5,9 9,18 16,36 25,54 9,15 18,31 26,46 4,7 6,15 11,21 6,7 14,10 22,13 5,2 11,2 16,3 6,2 12,4 17,5 9,3 16,7 24,8 21,4 44,8 64,15 8,2 15,2 24,5 6,3 15,9 22,10l2 2c0,7 9,14 12,20 5,8 11,16 17,23 11,14 15,29 22,44 8,17 21,32 29,48 4,9 9,17 13,25 2,3 5,6 7,10 2,5 4,11 7,16 9,15 15,32 25,47 9,15 15,34 22,51 7,18 15,37 24,55 6,12 7,25 12,38 3,8 7,16 9,25 2,6 6,11 9,17 5,8 9,16 12,24 4,8 10,16 15,24 6,10 10,26 19,34l0 12c-1,6 3,8 6,12 2,4 1,10 5,12 3,-3 4,-7 7,-11 3,-5 9,-9 14,-13 8,-6 17,-11 26,-16 8,-5 17,-6 26,-9 4,-1 8,-1 12,-2 4,-1 8,-4 12,-6 37,-11 70,-30 105,-44 0,7 0,14 0,21 0,7 2,14 2,21 0,10 3,19 3,28 0,10 1,21 3,32 1,9 2,16 2,26 0,4 -1,9 0,13 0,4 2,6 3,9 2,12 -1,26 -1,38 1,7 3,13 3,20 0,8 -1,16 0,23 2,13 2,25 2,37 0,10 2,18 2,27 0,8 0,16 0,24 0,9 0,18 0,27 1,10 3,21 3,31 0,15 0,31 0,46 0,5 -1,11 0,16 1,6 3,10 3,16 0,8 0,16 0,24 0,16 0,32 0,48 -7,0 -12,7 -18,9 -5,3 -12,2 -18,4 -7,3 -5,9 -5,16 0,8 -1,17 0,24 2,15 4,29 4,44 1,11 2,21 3,32 0,15 0,31 0,46 0,22 0,45 0,67 0,15 -2,31 2,46 2,14 -1,28 2,41 3,11 1,25 1,37l0 -3c7,0 14,1 21,2 6,1 12,3 18,3 8,1 16,0 24,2 9,2 17,3 26,3 8,0 15,3 23,3 12,0 24,0 36,0 12,0 25,0 37,0 14,0 28,0 42,0 13,0 26,0 39,-3 5,-2 11,-2 18,-3 6,-2 12,-4 18,-4 13,0 26,0 39,0l2 17c0,19 0,39 0,58 0,10 3,19 2,29 0,12 3,23 5,36 4,25 9,51 13,77 2,15 4,31 7,47 3,19 8,37 11,56 4,23 7,47 15,70 3,8 4,16 6,24 2,6 6,11 8,17 5,9 8,20 13,29 4,10 9,21 13,31 5,10 12,21 16,32 3,11 9,23 13,34 5,10 9,20 14,29 13,25 25,49 36,74 4,10 9,18 11,28 1,4 3,8 5,12 1,4 2,12 5,14l0 -5c6,0 12,0 17,1 8,1 16,3 25,4 14,0 28,7 42,10 18,3 36,7 55,7 16,0 32,0 48,0 30,0 60,0 90,0 9,0 19,1 28,0 10,-1 18,-3 27,-3 13,0 24,-2 36,-2 22,0 44,-2 65,3 13,2 25,2 37,4 15,1 29,5 44,5 18,-1 35,2 52,2 9,0 16,2 24,3 17,1 33,4 50,6 13,1 27,3 40,5 10,1 20,3 29,3 28,-1 57,7 86,7 15,0 31,0 46,0 9,0 18,0 27,0 6,0 12,-2 19,-3l26 5c5,6 12,7 17,12 6,6 13,11 20,17 11,10 20,20 31,31 6,8 11,17 18,25 6,8 11,16 16,25 5,7 9,15 13,23 5,7 4,13 4,21 0,7 -3,12 -4,19 -1,6 0,11 -2,17 -3,9 -5,18 -8,27 -5,12 -13,22 -17,34 -3,6 -7,12 -10,18 -3,7 -5,15 -9,20 9,0 18,2 26,6 4,3 8,2 11,4 6,2 13,7 17,12 9,9 16,20 25,29 7,7 16,13 23,20 20,20 49,26 72,42 10,7 21,10 31,16 11,7 20,16 32,21 6,3 13,6 19,8 5,1 9,4 15,6 11,2 24,0 36,0 10,0 19,0 29,0 10,0 19,-3 29,-5 7,-2 14,-2 21,-4 12,-5 23,-9 35,-15 13,-7 23,-16 35,-25 8,-6 14,-15 16,-26 3,-13 3,-27 3,-42 -1,-6 -3,-11 -5,-16 -5,-11 -8,-23 -13,-34 -9,-19 -20,-38 -31,-56 -5,-8 -11,-16 -15,-24 -3,-7 -4,-17 -10,-22l0 -19c10,0 16,-2 25,-4 7,-2 15,-2 23,-4 12,-3 25,-7 37,-11 8,-3 16,-4 24,-7 7,-3 16,-6 22,-10 4,-4 6,-8 10,-12 3,-5 7,-8 10,-12 4,-8 8,-15 12,-23 4,-9 7,-19 19,-19 8,0 17,2 24,0 19,-3 25,-24 32,-39 8,-15 18,-29 35,-34 14,-3 29,-3 44,-8 7,-3 15,-7 23,-10 8,-4 15,-9 21,-16 8,-7 15,-13 22,-21 7,-8 17,-13 25,-20 0,-16 -1,-32 0,-48 0,-11 4,-20 7,-30 2,-11 4,-22 7,-33 5,-18 13,-36 22,-52 11,-20 23,-39 40,-54 7,-5 14,-8 21,-13 11,-6 24,-9 36,-14 11,-6 24,-7 36,-10 8,-2 13,-5 22,-5 14,0 28,0 42,0 17,0 33,2 50,-5 8,-3 18,-5 25,-11 3,-3 6,-6 10,-7 4,-1 7,-1 10,-3 10,-4 22,-12 30,-20 7,-8 10,-20 14,-29l0 -2c0,-6 5,-9 7,-15 2,-6 4,-9 7,-15 5,-9 9,-19 12,-29 6,-16 15,-31 20,-48 3,-8 8,-17 12,-24 3,-7 7,-14 12,-20 4,-3 7,-2 12,-2 11,0 19,-3 29,-5 8,-2 18,-3 26,-7 5,-3 9,-7 15,-9 5,-3 11,-5 17,-8 5,-4 10,-7 15,-11 7,-3 15,-7 22,-11 5,-4 9,-9 14,-11 5,-3 9,-4 13,-8 8,-8 7,-14 7,-25 0,-9 0,-17 0,-26 0,-10 -1,-17 -3,-27 -1,-7 -4,-16 -5,-23 0,-5 0,-8 -2,-13 -2,-4 -5,-7 -5,-12l2 -7c8,2 17,-12 23,-16 3,-2 7,-3 10,-5 5,-4 10,-7 15,-11 7,-4 13,-11 19,-16 3,-3 7,-7 11,-11 3,-3 8,-7 11,-11 8,-16 14,-32 22,-49 7,-15 14,-32 20,-48 2,-9 2,-12 11,-15 9,-3 18,-7 26,-11 13,-7 27,-11 41,-19 6,-4 15,-6 22,-8 10,-2 11,7 14,14 2,7 4,15 6,21 4,8 8,14 13,21 6,8 9,14 20,14 6,0 11,-2 18,-4 8,-3 16,-8 23,-12 8,-5 20,-10 26,-18l2 0c7,-6 11,-14 18,-19 9,-8 17,-16 26,-25 6,-5 13,-9 17,-16 3,-4 5,-8 8,-11 6,-7 12,-12 16,-21 4,-8 9,-15 15,-23 2,-3 4,-6 7,-9 4,-4 6,-9 10,-14 5,-6 14,-10 22,-10 12,-1 22,0 34,-3 14,-5 27,-6 40,-9 8,-2 16,-7 24,-10 19,-8 36,-17 54,-26 19,-11 35,-26 51,-41 6,-7 14,-15 19,-24 5,-8 8,-18 14,-25l0 -2c4,-3 5,-6 7,-10 1,-3 5,-6 7,-9 5,-8 6,-18 10,-27 3,-7 6,-14 7,-21 2,-8 2,-16 4,-24 1,-8 5,-15 11,-20 3,-3 7,-5 10,-8 3,-3 3,-5 3,-10 -1,-13 -1,-25 2,-38 1,-8 4,-15 6,-22 2,-8 6,-15 8,-22 6,-19 27,-24 39,-38 12,-15 23,-27 38,-39 6,-5 14,-8 22,-8 9,0 16,2 20,-7 8,-19 16,-38 23,-58 5,-16 14,-32 30,-41 11,-8 26,-13 39,-13 5,0 9,0 13,2 5,2 9,7 14,8l9 0c11,0 18,-4 27,-8 10,-4 21,-7 30,-12 18,-8 37,-13 54,-24 11,-7 23,-13 35,-19 4,-3 7,-7 11,-10 4,-2 10,-3 14,-4 11,-4 21,-8 32,-10 9,-2 20,-1 29,-1 8,0 15,0 22,0 11,0 17,3 27,6 19,6 37,15 56,23 10,5 20,11 30,13 11,3 21,5 31,6 17,3 35,1 52,1l2 2c42,0 84,-6 126,-14 22,-4 45,-8 67,-13 6,-1 12,-1 18,-2 4,-1 8,-2 12,-2 10,-1 19,0 29,0 55,0 111,5 164,18 5,1 9,2 13,3 7,2 12,5 19,8 9,4 20,6 29,10 15,5 32,11 48,12l3 0c16,-1 30,12 45,18 7,2 13,1 21,1 8,0 16,3 25,6 16,6 29,14 45,22 14,7 28,15 43,20 8,3 16,2 24,4 8,1 17,4 26,4 14,0 32,2 47,-1 10,-2 19,-5 29,-7 10,-3 19,-4 28,-6 10,-2 20,-4 30,-5 7,-1 15,0 22,0 4,-1 9,-3 13,-3 4,0 8,0 12,0 8,0 15,0 23,0 14,0 28,0 42,0l2 2c-1,5 3,11 6,15 3,7 5,13 11,19 6,6 9,13 14,20 5,7 10,11 17,17 6,4 10,10 16,14 5,5 12,8 19,12 11,6 23,10 36,10 17,0 34,0 51,0 12,0 26,2 38,0 14,-2 28,-6 42,-9 6,-2 11,-4 17,-6 5,-2 14,-9 19,-9l-12 -13c-7,-8 -18,-10 -24,-19 -6,-8 -12,-13 -20,-19 -9,-9 -17,-22 -23,-34 -5,-8 -12,-16 -16,-25 -2,-5 -4,-11 -7,-16 -3,-7 -7,-14 -9,-22 -3,-11 -7,-24 -8,-36 -1,-17 -2,-36 0,-53 1,-8 4,-18 7,-27 3,-10 7,-18 12,-27 11,-19 31,-35 37,-56 2,-4 4,-6 6,-9 3,-5 3,-10 6,-14 4,-8 9,-16 10,-26 1,-9 0,-19 0,-28 0,-8 3,-24 -3,-29 0,-19 0,-39 0,-58 0,-18 -1,-37 7,-54 3,-7 7,-14 10,-21 6,-13 14,-20 24,-29 6,-6 14,-11 22,-15 11,-5 21,-11 32,-16 10,-4 21,-6 31,-9 9,-2 17,-6 26,-9 8,-3 17,-4 25,-8 9,-4 20,-7 28,-11 18,-10 31,-28 50,-36 11,-5 19,-6 31,-6 4,0 8,0 12,0 6,0 11,4 16,5 11,3 18,5 29,5 12,0 21,-15 28,-23 9,-10 19,-20 25,-32 4,-6 7,-12 11,-17 5,-5 11,-8 15,-13 8,-1 16,5 24,8 9,4 17,7 27,9 8,1 16,3 24,3 10,0 19,0 29,0 21,0 41,0 61,0 7,0 15,1 22,-2 9,-4 18,-9 27,-14 17,-9 29,-28 42,-42 10,-9 18,-8 30,-8 13,0 22,0 33,6 6,2 12,6 18,9 7,3 10,3 17,5 12,3 22,15 32,21 12,8 27,16 40,19 7,2 20,6 25,10l2 0c12,0 21,0 32,5 9,4 17,9 27,12 6,3 12,6 19,8 5,2 11,2 16,4 8,2 15,7 23,8 26,2 50,15 70,32 4,3 8,8 12,11 3,3 6,5 9,8 10,7 19,14 29,19 10,5 20,11 30,15 8,4 17,5 25,6 22,5 46,3 68,3 17,0 45,-6 57,10 6,9 13,18 24,22 9,3 19,8 27,9 14,2 28,-1 41,1 15,2 34,3 48,11 12,5 24,11 33,21 3,3 8,7 10,11 3,5 7,11 5,17l20 12c10,0 21,0 31,0 4,0 7,0 11,0 6,0 11,2 17,3 24,3 49,2 74,2 12,0 26,1 39,0 9,-2 19,-3 29,-5 3,0 5,-1 7,-2 5,0 9,1 13,0 4,-1 8,-2 13,-3 6,0 12,0 19,0 20,0 41,0 61,0 27,0 55,0 82,0 17,0 33,-1 49,2 11,2 21,2 31,5 22,4 45,5 69,5 6,0 12,1 19,-1 8,-2 13,-9 18,-16 9,-13 15,-28 20,-43 8,-26 1,-65 29,-80 23,-12 46,-12 71,-12 12,0 23,1 35,2 7,1 13,4 20,5l5 2c95,0 189,0 284,0 9,0 18,0 28,-2 11,-2 22,-6 32,-11 10,-5 21,-10 32,-15 11,-4 25,-7 37,-9 9,-2 19,-1 28,-1 6,0 11,-1 17,0 7,1 14,4 22,5 8,1 18,0 26,0 8,0 17,1 25,-1 15,-4 31,-9 45,-16 11,-5 20,-11 30,-18 10,-7 18,-10 29,-14 18,-7 39,-14 58,-16l9 -12c9,1 18,-7 25,-12 5,-4 10,-7 16,-11 4,-2 6,-7 10,-9 4,-2 8,-3 11,-5 5,-3 10,-6 16,-9 7,-3 15,-6 23,-8 7,-2 15,-4 22,-6 8,-2 16,-6 25,-6 5,-1 10,0 15,0 7,0 14,-2 21,-3 9,0 20,-1 29,0 9,2 18,7 27,11 17,8 37,16 53,26 9,4 16,12 24,17 7,5 14,8 22,12 4,2 8,5 13,8 6,3 14,6 20,8 13,5 25,7 37,11 8,2 17,6 25,6 9,1 19,0 28,0 7,0 14,1 21,0 10,-1 19,-5 29,-8 9,-3 18,-5 28,-9 16,-8 32,-12 51,-14 5,1 9,-5 14,-8 4,-2 10,-3 15,-4 9,-2 17,-3 27,-3 18,0 37,1 55,3 5,0 10,2 15,2 5,0 10,0 15,0 12,0 22,-2 33,-4 19,-4 37,-13 55,-19 17,-6 36,-16 54,-16 11,0 22,-1 33,2 9,2 18,4 27,6 16,4 34,11 51,12 20,1 40,0 60,0l5 0c8,0 15,0 22,0 11,0 21,-1 31,-3l5 -2c7,0 15,-6 20,-10 5,-3 10,-6 16,-9 11,-7 25,-11 38,-16 14,-5 30,-4 45,-4 13,0 26,0 39,0 6,0 12,1 18,-1 6,-2 12,-6 18,-9 14,-7 24,-19 41,-19 14,0 28,0 41,7 7,4 14,8 22,11 5,2 14,5 19,4l0 2c7,0 13,0 19,0 8,1 16,4 24,6 14,2 25,10 38,11 8,1 15,2 22,4 9,2 18,4 26,6 9,2 17,3 26,5 3,1 7,2 10,3 4,0 8,-1 12,0 6,1 12,2 19,3 8,2 18,1 27,1 18,0 38,0 56,0 16,0 32,0 48,0 11,0 22,-1 33,-2 7,-1 14,-2 20,-3 9,-2 19,-4 28,-6 11,-2 20,-6 30,-10 9,-3 18,-7 27,-10 9,-3 17,-14 26,-15l10 13c0,10 4,16 9,24 3,4 4,8 6,12 2,4 6,8 9,12 0,2 1,5 3,7 3,3 6,7 9,9 4,5 6,10 10,15 5,7 14,12 19,20 6,9 11,18 23,23 10,5 19,10 29,15 7,4 15,7 21,12 4,4 8,8 12,12 3,4 6,9 9,13 6,5 12,9 17,14 5,5 10,11 16,15 6,5 12,9 18,14 9,8 21,13 30,20 7,6 15,11 23,17 8,5 14,11 23,14 10,4 21,2 33,2 23,0 45,-9 68,-9l2 0c9,0 19,1 27,-1 11,-3 21,-4 33,-4 15,0 32,2 46,-4 7,-3 14,-7 21,-10 4,-2 9,-3 14,-5 5,-2 10,-5 15,-6 7,-1 16,0 24,0 11,0 22,0 34,0 6,0 13,2 20,4 9,2 18,3 28,5 20,4 38,8 55,21 18,13 29,29 39,47 6,11 12,21 19,31 2,5 3,10 6,14 3,4 8,8 12,12 8,8 17,15 26,24 4,4 9,8 13,13 6,6 11,13 16,18 5,5 11,7 16,12 5,4 11,5 18,6 11,3 23,6 34,7 -1,-8 5,-17 8,-24 3,-6 6,-13 7,-20 0,-5 0,-11 0,-16 0,-9 -5,-16 -9,-23 -17,-32 -35,-63 -56,-93 -5,-7 -10,-14 -13,-23 -2,-7 -4,-15 -6,-22 -1,-8 -4,-14 -4,-22 0,-7 -1,-14 0,-21 1,-6 5,-12 7,-17 3,-11 0,-27 0,-38 0,-12 2,-26 -1,-38 -6,-25 -20,-47 -28,-72 -7,-20 -5,-42 -5,-63l-7 -7c0,-18 2,-35 7,-53 3,-9 4,-18 7,-28 4,-12 11,-23 18,-34 7,-8 11,-13 21,-18 11,-5 22,-8 34,-10 11,-2 22,-3 32,-6 6,-2 12,-3 19,-4 11,-2 23,-2 34,-6 5,-3 14,-5 19,-8 4,-2 6,-5 10,-6 6,-3 14,-6 19,-11 11,-8 0,-15 -7,-22 -6,-6 -13,-11 -20,-15 -5,-3 -9,-6 -14,-9 -6,-3 -10,-9 -17,-13 -8,-5 -17,-10 -25,-14 -10,-5 -17,-11 -22,-22 -3,-8 -1,-21 -1,-31 0,-11 -2,-23 6,-32 6,-7 13,-14 20,-19 12,-7 22,-7 34,-7l3 0c12,0 30,-8 39,-16 8,-9 13,-22 20,-32 2,-3 5,-5 6,-7 2,-3 3,-7 5,-10 5,-5 15,-9 21,-12 15,-9 31,-7 47,-10 10,-2 24,-6 32,-13 7,-6 5,-27 3,-35 -5,-27 -2,-58 -2,-85 -11,0 -21,-6 -31,-10 -9,-4 -13,-11 -16,-20 -3,-7 -8,-15 -8,-23 -1,-6 -3,-12 -3,-17 1,-18 1,-36 -2,-54 -1,-9 -2,-17 -6,-26 -3,-9 -11,-13 -17,-21 -5,-7 -12,-13 -17,-19 -2,-3 -6,-7 -8,-11 -3,-3 -4,-7 -7,-11 -6,-8 -10,-17 -14,-26 -3,-10 -4,-20 -7,-29 -3,-8 -4,-16 -10,-22 -8,-8 -12,-20 -21,-27 -8,-6 -17,-12 -25,-19 -4,-4 -6,-10 -9,-14 -2,-4 -7,-9 -6,-14l-8 -15c0,-5 -4,-10 -7,-14 -3,-4 -4,-7 -7,-12 -5,-9 -10,-18 -15,-27 -2,-4 -5,-7 -7,-10 -2,-4 -2,-8 -4,-12 -2,-5 -7,-8 -9,-12 -3,-4 -6,-10 -8,-14 -11,-19 -21,-37 -22,-58 -2,-28 0,-57 0,-85 0,-26 -20,-35 -37,-51 -3,-3 -6,-7 -9,-10 -3,-2 -7,-4 -10,-7 -8,-8 -7,-23 -7,-34 0,-53 0,-106 0,-159l0 4c-8,-2 -17,-15 -22,-21 -6,-7 -12,-13 -18,-19 -6,-6 -8,-12 -11,-19 -4,-9 -8,-18 -9,-28 0,-5 1,-10 0,-14 -1,-4 -2,-6 -2,-10 -1,-14 0,-27 0,-40 0,-18 0,-37 0,-55 0,-5 0,-10 0,-15 0,-7 -2,-14 -3,-22 -1,-15 -2,-30 -2,-45 -1,-18 16,-23 26,-34 4,-5 7,-11 10,-16 4,-7 9,-14 14,-20l3 0c-3,-15 -11,-30 -21,-40 -6,-6 -11,-12 -18,-16 -10,-6 -19,-15 -29,-18 -8,-3 -14,-4 -22,-8 -10,-4 -21,-8 -32,-11 -8,-2 -15,-6 -24,-7 -7,0 -15,0 -23,0 -14,0 -28,0 -42,0 -7,0 -13,-1 -19,3 -4,3 -8,8 -13,12 -3,3 -7,6 -11,9 -7,6 -11,14 -18,20 -4,3 -8,5 -12,9 -2,3 -4,7 -7,10 -5,5 -11,9 -17,7 -12,-3 -16,-13 -22,-21 -7,-9 -14,-18 -21,-27 -7,-10 -16,-18 -21,-29 -6,-12 -11,-24 -17,-36 -4,-6 -10,-15 -11,-22l12 -20c3,0 6,-3 8,-5 4,-2 8,-4 12,-7 4,-3 10,-5 15,-7 4,-1 7,-3 11,-5 14,-6 29,-10 44,-12 7,-2 18,-7 24,-12 8,-9 14,-18 24,-26 14,-12 28,-24 46,-31 7,-3 16,-3 24,-4 6,0 11,-2 17,-2 7,-1 15,0 22,0 19,0 36,-2 55,-6 12,-2 23,-8 34,-13 10,-5 20,-7 29,-13 7,-4 15,-5 22,-8 12,-6 24,-12 37,-17 20,-8 39,-18 60,-23 14,-3 28,-4 42,-7 11,-3 19,-5 31,-5 6,0 12,0 19,0 8,0 15,-3 23,-5 16,-3 31,-7 47,-11 23,-6 46,-13 69,-19 16,-4 33,-11 50,-15 39,-10 75,-28 113,-40 11,-4 20,-9 30,-12 13,-4 27,-9 40,-13 14,-5 29,-10 43,-16 21,0 36,-12 55,-21 15,-7 27,-15 41,-23 20,-12 39,-25 59,-37 9,-7 17,-14 27,-21 5,-3 10,-8 16,-11 5,-2 9,-3 14,-6 17,-9 36,-15 52,-4 15,11 30,21 40,35 6,7 14,14 21,21 7,7 14,11 22,17 6,4 11,10 18,13 7,4 15,7 22,10 9,4 16,8 26,10 11,1 22,0 33,0 9,0 20,1 29,-1 10,-2 20,-5 30,-7l3 0c3,-3 10,-5 14,-7 5,-2 9,-3 14,-5 13,-5 25,-9 39,-12 12,-3 23,-2 35,-2 10,0 19,-1 28,2 17,6 35,13 51,22 11,6 19,14 32,18 12,4 25,6 38,6 5,0 11,1 16,0 3,-1 3,-1 6,-3 4,-2 7,-2 12,-4 8,-3 21,-9 22,-19 2,-13 2,-27 2,-40 0,-36 0,-72 0,-107 0,-31 0,-61 0,-91 0,-10 4,-22 -9,-24 -5,-1 -12,0 -17,0 -11,0 -21,-2 -31,-3 -17,-1 -34,-4 -51,-8 -17,-4 -40,-7 -52,-22 -6,-7 -9,-19 -12,-28 -4,-13 -6,-27 -8,-40 -2,-18 -6,-36 -6,-54l2 -10c0,-12 4,-21 8,-32 3,-8 5,-16 8,-24 6,-18 10,-34 18,-51 4,-9 5,-20 10,-29 2,-4 4,-8 5,-12 6,-16 13,-29 17,-45 3,-14 3,-28 6,-42 2,-10 3,-21 3,-31 0,-20 0,-39 0,-58 0,-12 -3,-23 -2,-34 0,-9 -2,-16 -3,-24 -2,-12 -4,-23 -9,-34 -2,-7 -5,-14 -7,-21 -3,-7 -6,-15 -7,-23 -2,-7 -5,-18 -10,-24l-5 -18c0,-35 16,-75 27,-108 11,-33 24,-65 38,-98 7,-18 12,-37 19,-56 5,-11 11,-20 15,-32 3,-12 6,-24 9,-36 11,-45 27,-89 43,-131 6,-15 11,-32 15,-47 3,-14 9,-27 14,-40 4,-11 8,-22 12,-33 7,-21 14,-43 22,-64 6,-18 16,-37 20,-56 3,-15 9,-31 11,-47 3,-18 1,-37 1,-55 0,-18 -2,-37 0,-55 1,-10 3,-17 4,-27 1,-13 5,-27 9,-39 4,-11 8,-24 13,-35 4,-9 9,-23 17,-30 9,-7 20,-6 30,-8 10,-2 17,-4 27,-4 11,0 23,-1 34,1 13,3 24,9 35,14 10,5 20,7 29,13 9,5 17,15 28,16l4 0c14,-1 28,7 41,11 12,4 23,9 34,14 14,6 29,11 43,16 13,4 27,10 40,14 22,6 43,12 64,17 13,3 26,4 40,3 12,0 24,-6 36,-8 15,-2 29,-6 44,-3 14,3 29,12 43,18 26,13 53,25 83,25 17,0 32,-6 48,-13 14,-6 25,-16 39,-23 11,-5 21,-16 32,-19 10,-3 20,-1 29,2 18,6 31,13 51,13l4 0c22,0 45,0 68,0 12,0 26,2 38,-1 11,-2 22,-7 33,-11 22,-8 51,-19 72,-4 10,7 21,21 26,32 7,13 6,27 12,40 9,19 5,48 33,48 14,-1 25,-1 36,-12 12,-13 20,-32 37,-39 5,-3 13,-7 18,-8 6,-2 11,0 17,-1 9,-1 18,-5 27,-7 13,-3 20,-9 31,-16 15,-8 28,-21 40,-33 14,-14 29,-31 41,-47 13,-17 28,-25 46,-36 16,-9 31,-20 49,-25 15,-4 28,-7 43,-7 14,0 27,2 40,-3 19,-8 37,-13 51,-29 8,-9 12,-12 14,-23 2,-10 5,-22 7,-32 2,-16 -1,-34 -1,-50 0,-34 1,-68 0,-102 0,-20 -6,-39 -8,-58 -1,-12 -9,-39 -23,-40l-20 -22c2,-10 -7,-16 -11,-25 -4,-11 -6,-22 -9,-33 -2,-8 -4,-16 -4,-24 0,-10 -3,-18 -3,-28 -1,-30 -13,-62 -19,-92 -3,-14 -3,-28 -5,-41 -1,-5 0,-10 -1,-15 0,-6 -3,-11 -3,-17 0,-5 -1,-8 -2,-12 -2,-7 -1,-14 -2,-20 -3,-25 -8,-49 -11,-73 -1,-13 -4,-26 -6,-39 -1,-5 0,-10 -1,-15 0,-6 -2,-12 -3,-18 -1,-6 1,-13 -1,-20 -1,-7 -2,-14 -2,-21 0,-16 0,-31 0,-47 0,-21 -3,-42 -3,-63 0,-21 0,-42 0,-63 0,-13 -2,-29 1,-42 1,-6 2,-9 2,-16 0,-5 -1,-10 3,-13l0 -3c3,-4 8,-6 12,-10 5,-6 7,-12 13,-17 8,-6 15,-16 20,-26 3,-4 4,-9 7,-14 2,-3 5,-5 6,-9 4,-11 3,-25 5,-37 4,-24 7,-49 28,-65 16,-12 38,-13 58,-17 18,-4 36,-6 54,-9 13,-2 25,-5 37,-7 11,-3 23,-1 34,-3 11,-3 23,-5 34,-7 3,-1 6,0 9,-1 6,-1 12,-5 19,-6 9,-1 18,-3 27,-6 8,-3 18,-5 25,-10 11,-8 16,-19 23,-31 3,-5 8,-7 11,-12 4,-5 4,-10 9,-14 12,-10 28,-13 41,-20 10,-5 26,-9 33,-19l47 -15c8,-8 17,-15 24,-24 6,-8 14,-14 20,-21 15,-14 24,-29 30,-48 3,-8 3,-16 5,-24 2,-9 4,-16 4,-25 0,-9 3,-17 3,-27 1,-11 0,-23 0,-35 0,-11 0,-23 0,-34 0,-5 1,-11 0,-16 0,-5 -3,-10 -5,-15 -5,-20 -13,-39 -21,-59 -12,-29 -17,-58 -17,-89 0,-10 -2,-24 0,-34 2,-5 6,-9 8,-14 4,-8 6,-10 13,-15 9,-6 15,-13 25,-18 5,-3 9,-5 13,-9 6,-4 12,-5 18,-8 13,-6 26,-17 37,-26 4,-3 9,-6 13,-9 5,-2 9,-9 15,-9l3 -3c9,1 19,-4 28,-5 9,-2 18,-5 27,-7 15,-3 32,3 46,-1 2,-6 1,-13 1,-20 0,-8 1,-17 0,-26 -2,-18 -18,-27 -34,-27 -9,0 -16,-3 -24,-3 -5,-1 -11,1 -17,0 -8,-1 -13,-7 -21,-9 -8,-2 -20,-5 -26,-11 -6,-6 -13,-8 -19,-14 -6,-7 -14,-15 -20,-23 -5,-6 -9,-13 -12,-20 -3,-8 -3,-15 -5,-23 -2,-11 -3,-16 -10,-23 -6,-6 -11,-7 -19,-9 -10,-2 -22,-6 -27,-17 -5,-10 -4,-20 -13,-27l-12 -15c1,-7 -8,-18 -11,-23 -2,-4 -5,-7 -7,-11 -3,-5 -4,-10 -6,-14 -4,-8 -8,-17 -17,-21 -5,-2 -9,-1 -13,-2 -5,-1 -9,-3 -14,-3 -9,-1 -19,-2 -28,-7 -12,-6 -24,-17 -34,-27 -11,-11 -20,-36 -14,-51 4,-8 13,-15 20,-20 5,-2 11,-3 16,-7 8,-6 18,-16 24,-24 6,-8 13,-18 17,-28 3,-5 2,-10 3,-16 1,-7 2,-13 2,-20 0,-11 2,-18 -6,-27 -8,-9 -19,-19 -30,-24 -7,-3 -13,-7 -19,-9 -4,-1 -12,-7 -16,-6 -11,0 -8,20 -10,27 -2,8 -5,16 -7,24 -1,5 -1,9 -3,13 -3,6 -8,10 -12,15 -7,10 -14,20 -23,29 -9,8 -21,8 -32,13 -10,4 -22,12 -30,18 -10,8 -21,15 -30,23 -11,10 -23,17 -32,27 -9,9 -16,18 -24,27 -17,18 -35,44 -37,69 -1,11 -3,22 -3,33 0,9 0,19 0,28 0,10 -1,20 0,30 0,3 1,8 -1,10 -2,5 -11,4 -15,3 -24,-2 -32,-33 -42,-51 -19,-32 -51,1 -75,8 -4,1 -11,2 -14,0 -6,-3 -7,-12 -12,-17 -13,-12 -23,2 -33,8 -7,4 -17,4 -25,3 -8,0 -11,-5 -17,-11 -8,-7 -17,-16 -27,-21 -9,-5 -17,-10 -27,-11 -10,-1 -24,-3 -31,6l0 3c-21,-1 -43,12 -61,22 -10,5 -19,8 -29,13 -12,5 -23,11 -36,11 -20,1 -42,0 -62,0 -18,0 -48,6 -62,-7 -4,-4 -10,-10 -13,-15 -4,-6 -4,-14 -9,-20 -12,-15 -23,-27 -31,-45 -8,-17 -17,-35 -27,-51 -6,-9 -10,-18 -16,-27 -4,-7 -10,-12 -15,-19 -5,-5 -7,-11 -10,-17 -6,-11 -14,-20 -21,-30 -10,-15 -17,-31 -25,-46 -5,-9 -9,-19 -14,-27 -4,-6 -10,-19 -17,-21 -1,1 -2,3 -3,5l0 9c-4,-6 -9,-9 -14,-14 -4,-5 -7,-10 -10,-15 -8,-10 -19,-21 -21,-33 -5,-23 6,-44 21,-61 8,-9 19,-17 24,-29 4,-11 -7,-19 -16,-24 -8,-6 -18,-9 -27,-13 -6,-3 -13,-5 -18,-9 -6,-4 -10,-9 -16,-12 -7,-5 -15,-8 -21,-13 -6,-4 -10,-10 -15,-15 -12,-12 -28,-17 -41,-27 -9,-8 -20,-11 -30,-17 -10,-6 -21,-10 -32,-14 -23,-9 -47,-19 -68,-31 -12,-8 -25,-10 -38,-15 -11,-4 -22,-11 -33,-13 -7,-1 -13,2 -18,7 -8,7 -14,10 -23,16 -5,3 -9,7 -14,9 -4,3 -10,7 -15,8 -18,5 -18,-8 -24,-22 -8,-15 -18,-30 -26,-46l-3 -18c-7,2 -7,-7 -11,-11 -4,-4 -9,-7 -14,-11 -6,-6 -11,-15 -18,-21 -18,-18 -27,-43 -38,-66 -3,-8 -7,-16 -8,-25 -1,-7 0,-16 0,-24 0,-6 -2,-10 -3,-15 -1,-6 0,-13 0,-18 0,-11 0,-23 0,-35 0,-8 -1,-18 -3,-27 -3,-11 -15,-16 -26,-19 -19,-3 -31,-13 -44,-26 -28,-28 -52,-63 -74,-96 -6,-9 -12,-18 -19,-26 -4,-5 -10,-10 -14,-16 -2,-3 -3,-8 -5,-11 -3,-5 -14,-7 -13,-13l-3 -3c-13,-9 -23,-23 -34,-34 -9,-10 -22,-16 -33,-25 -6,-5 -10,-11 -17,-16 -6,-4 -11,-8 -17,-14 -11,-12 -21,-23 -31,-35 -19,-22 -45,-35 -68,-53 -9,-6 -19,-9 -28,-14 -5,-3 -10,-5 -15,-8 -6,-3 -10,-6 -16,-10 -15,-9 -32,-14 -47,-23 -12,-7 -23,-12 -35,-18 -12,-4 -23,-6 -35,-9 -14,-4 -28,-7 -42,-10 -23,-3 -47,0 -69,0 -7,0 -12,-2 -19,-3 -7,-1 -16,0 -23,0 -12,0 -23,0 -35,0l-3 0c0,6 1,14 0,20 -1,6 -4,12 -6,17 -3,13 -7,24 -12,35 -5,12 -12,27 -22,35 -5,3 -11,3 -16,3 -14,1 -27,0 -41,0 -24,0 -48,0 -72,0 -13,0 -25,0 -38,0 -14,0 -30,-2 -43,3 -10,3 -33,6 -34,20 -1,10 10,24 13,33 5,16 1,20 -15,23 -10,3 -22,5 -32,11 -9,6 -9,15 -13,24 -3,8 -7,14 -9,23 -3,13 -11,24 -15,36 -2,7 -4,14 -9,21 -8,12 -24,25 -37,28 -23,6 -37,-18 -53,-31 -24,-20 -52,-29 -81,-38 -14,-4 -31,-1 -45,-1 -19,-1 -36,10 -50,21l-22 -9c-6,-1 -11,-6 -16,-9 -5,-2 -11,-3 -17,-6 -5,-3 -12,-5 -17,-8 -7,-4 -13,-10 -21,-13 -6,-2 -12,-3 -18,-6 -7,-2 -12,-7 -19,-9 -12,-3 -25,-6 -38,-7 -21,-2 -40,-7 -61,-11 -32,-6 -50,18 -77,32 -13,7 -23,17 -37,24 -12,6 -24,10 -37,13 -13,3 -28,1 -42,1 -10,0 -22,1 -32,-2 -9,-2 -30,-3 -28,-17 1,-9 8,-4 15,-7 7,-5 11,-15 14,-23 2,-5 5,-10 5,-16 0,-5 2,-17 0,-22 -4,-6 -14,-9 -20,-13 -6,-4 -14,-8 -20,-13 -11,-8 -19,-26 -15,-39 2,-7 5,-11 6,-19 0,-7 0,-14 0,-21 0,-12 2,-28 -2,-39 -4,-11 -13,-29 -26,-26 -12,0 -22,-4 -33,-7 -5,-2 -10,-5 -15,-6 -5,-1 -9,0 -14,0 -11,-2 -20,-3 -31,-3 -11,0 -22,0 -33,0 -10,0 -19,3 -28,4 -15,3 -31,4 -46,5 -13,0 -28,4 -41,6 -10,2 -21,3 -31,6 -10,2 -24,2 -33,1 -14,-2 -11,-17 -10,-28 0,-11 8,-18 14,-26 9,-14 20,-27 26,-43 13,-33 22,-69 38,-101 5,-12 5,-22 5,-34 0,-6 1,-12 -2,-17 -2,-5 -10,-9 -15,-13 -4,-3 -9,-7 -15,-7 -7,-1 -9,6 -14,11 -10,9 -28,17 -42,17 -11,0 -21,-6 -28,-14 -7,-10 -20,-26 -20,-39l-3 -3c-19,-19 -41,-39 -66,-50 -11,-6 -24,-9 -36,-12 -11,-3 -21,-8 -32,-11 -10,-3 -19,-4 -28,-7 -7,-3 -24,-7 -32,-3 -14,7 -4,43 -9,55 -4,11 -13,22 -22,28 -10,7 -17,14 -30,13 -10,-1 -18,-7 -29,-7 -10,0 -20,0 -31,0 -26,1 -40,36 -43,58 -1,12 -4,22 -3,35 0,9 4,17 8,25 4,9 7,19 13,27 7,13 15,27 27,36 12,9 23,13 28,28 4,11 3,29 -3,38 -5,8 -10,14 -16,20 -4,6 -8,13 -14,17l-3 0c-12,0 -20,5 -31,10 -10,5 -20,6 -31,9 -11,2 -20,2 -31,3 -10,0 -21,3 -31,6 -10,3 -22,3 -28,13 -3,5 -2,9 -3,15 -1,6 -4,13 -6,19 -7,22 -6,45 -6,67 0,5 0,11 0,16 0,3 2,13 0,16 -8,10 -21,-11 -24,-19 -3,-8 -5,-17 -9,-25 -2,-7 -5,-21 -13,-24 -21,-10 -15,33 -15,42 0,9 0,19 0,28 0,6 2,17 -3,22l-2957 -4044z"/>
 </g>
</svg>
