<?xml version="1.0" encoding="UTF-8"?>
<!DOCTYPE svg PUBLIC "-//W3C//DTD SVG 1.1//EN" "http://www.w3.org/Graphics/SVG/1.1/DTD/svg11.dtd">
<!-- Creator: CorelDRAW X7 -->
<svg xmlns="http://www.w3.org/2000/svg" xml:space="preserve" width="300px" height="201px" version="1.1" style="shape-rendering:geometricPrecision; text-rendering:geometricPrecision; image-rendering:optimizeQuality; fill-rule:evenodd; clip-rule:evenodd"
viewBox="0 0 30000 20094"
 xmlns:xlink="http://www.w3.org/1999/xlink">
 <defs>
  <style type="text/css">
   <![CDATA[
    .fil0 {fill:#fff}
   ]]>
  </style>
 </defs>
 <g id="Слой_x0020_1">
  <metadata id="CorelCorpID_0Corel-Layer"/>
  <g id="_355601016">
   <path class="fil0" d="M19405 6524c2,34 6,67 8,100 223,2526 1701,4478 3491,4478 1790,0 3268,-1952 3491,-4478 4,-33 6,-66 9,-100 16,-109 26,-220 33,-333 4,-76 7,-154 7,-232 0,-192 -13,-381 -40,-565 -259,-1790 -1728,-3162 -3500,-3162 -1772,0 -3240,1372 -3499,3162 -27,184 -40,373 -40,565 0,78 3,156 7,232 6,113 17,224 33,333zm1316 -2009c0,0 1019,495 2183,527 1164,-32 2184,-527 2184,-527 738,292 388,2368 388,2368 184,-129 354,-196 491,-230 -203,2206 -1496,3908 -3063,3908 -1566,0 -2860,-1702 -3063,-3908 138,35 307,101 492,230 -1,0 -351,-2076 388,-2368z"/>
   <path class="fil0" d="M25969 10642c-8,-1 -17,-1 -25,-3 -65,-8 -130,-16 -197,-22 0,7 -2,13 -2,20 -1,20 -5,38 -7,58 -12,110 -45,216 -96,319 -344,866 -1458,2507 -2113,3440l-135 -1937c191,-98 356,-261 461,-449 76,-136 123,-284 123,-435 0,0 -489,217 -989,217 -28,0 -57,-1 -85,-2 -29,1 -57,2 -86,2 -499,0 -988,-217 -988,-217 0,151 47,299 122,435 106,188 271,351 462,449l-135 1937c-655,-933 -1769,-2574 -2113,-3440 -51,-103 -84,-209 -96,-319 -3,-20 -6,-38 -7,-58 0,-7 -3,-13 -3,-20 -65,6 -131,14 -196,22 -8,2 -17,2 -25,3 -877,122 -1674,489 -2326,1027 1286,1335 2073,3146 2073,5107 0,395 -36,751 -96,1079 323,6 658,6 1002,6l2412 0 2412 0c2587,0 4684,7 4684,-2580 0,-2366 -1753,-4322 -4031,-4639z"/>
   <path class="fil0" d="M18246 16776c0,-3042 -2254,-5556 -5183,-5964 -10,-2 -21,-2 -31,-4 -84,-11 -168,-21 -253,-28 -1,8 -3,17 -3,25 -2,25 -6,49 -9,75 -15,140 -58,277 -123,409 -443,1114 -1875,3225 -2717,4424l-174 -2490c246,-126 458,-336 594,-578 98,-174 157,-365 157,-559 0,0 -629,279 -1271,279 -36,0 -73,-1 -110,-3 -36,2 -73,3 -110,3 -642,0 -1270,-279 -1270,-279 0,194 59,385 157,559 136,243 348,451 594,578l-174 2490c-843,-1199 -2275,-3310 -2717,-4424 -66,-132 -108,-269 -124,-409 -3,-26 -7,-50 -8,-75 0,-8 -3,-17 -3,-25 -85,7 -169,17 -253,28 -11,2 -22,2 -32,4 -2929,408 -5183,2923 -5183,5964 0,3310 2671,3318 5975,3318 16,0 32,0 47,0l3101 0 3102 0c16,0 32,0 47,0 3304,0 5974,-8 5974,-3318z"/>
   <path class="fil0" d="M9123 11403c1274,0 2423,-770 3246,-2006 664,-998 1114,-2300 1242,-3750 5,-43 8,-86 12,-129 20,-141 34,-284 42,-428 5,-99 10,-199 10,-299 0,-246 -18,-490 -52,-727 -334,-2301 -2221,-4064 -4500,-4064 -2279,0 -4166,1763 -4499,4064 -35,237 -52,481 -52,727 0,101 4,200 10,299 7,144 21,287 42,428 3,43 7,86 11,129 128,1450 578,2752 1242,3750 822,1237 1972,2006 3246,2006zm-3938 -5720c177,45 394,130 631,296 0,0 -449,-2670 500,-3044 0,0 1310,636 2807,677 1497,-41 2807,-677 2807,-677 950,374 500,3044 500,3044 237,-166 454,-251 631,-296 -134,1459 -640,2745 -1373,3651 -61,75 -122,148 -186,218 -664,725 -1487,1155 -2379,1155 -864,0 -1664,-404 -2316,-1088 -86,-90 -169,-185 -250,-285 -732,-906 -1238,-2192 -1372,-3651z"/>
  </g>
 </g>
</svg>
