<?xml version="1.0" encoding="UTF-8"?>
<!DOCTYPE svg PUBLIC "-//W3C//DTD SVG 1.1//EN" "http://www.w3.org/Graphics/SVG/1.1/DTD/svg11.dtd">
<!-- Creator: CorelDRAW X7 -->
<svg xmlns="http://www.w3.org/2000/svg" xml:space="preserve" width="300px" height="85px" version="1.1" style="shape-rendering:geometricPrecision; text-rendering:geometricPrecision; image-rendering:optimizeQuality; fill-rule:evenodd; clip-rule:evenodd"
viewBox="0 0 25647 7309"
 xmlns:xlink="http://www.w3.org/1999/xlink">
 <defs>
  <style type="text/css">
   <![CDATA[
    .fil0 {fill:#fff}
   ]]>
  </style>
 </defs>
 <g id="Слой_x0020_1">
  <metadata id="CorelCorpID_0Corel-Layer"/>
  <path class="fil0" d="M0 7309l7479 0 0 -7309 -3719 3818 -3760 -3816 0 7307zm8003 -5245l966 0 4 1565c179,-5 271,-105 278,-302l18 -723c6,-267 58,-447 154,-540l891 0c-86,90 -128,276 -127,558l5 636c3,384 -213,604 -650,657 437,53 653,276 650,666l-5 590c-1,281 41,481 127,600l-891 0c-103,-93 -154,-274 -154,-541l0 -722c0,-92 -28,-166 -82,-221 -56,-56 -127,-85 -214,-86l-4 1570 -966 0 0 -3707zm4711 2173c0,372 -9,635 -27,790 -17,155 -72,297 -164,425 -92,128 -217,226 -374,295 -157,69 -340,103 -548,103 -199,0 -376,-33 -534,-97 -157,-65 -285,-162 -380,-292 -96,-129 -153,-271 -172,-423 -18,-153 -27,-420 -27,-801l0 -635c0,-372 8,-635 26,-790 18,-155 72,-297 164,-425 93,-128 218,-226 375,-295 157,-69 339,-103 548,-103 198,0 376,33 533,97 158,65 285,162 381,292 96,129 153,271 171,423 18,153 28,420 28,801l0 635zm-966 -1218c0,-172 -9,-282 -28,-330 -18,-48 -57,-72 -114,-72 -50,0 -87,19 -114,58 -26,39 -39,153 -39,344l0 1730c0,215 9,348 26,398 17,50 57,75 120,75 64,0 105,-29 123,-86 18,-58 26,-196 26,-414l0 -1703zm4299 -955l0 3707 -843 0 -3 -2503 -335 2503 -590 0 -354 -2447 -2 2447 -844 0 0 -3707 1246 0c35,224 73,488 115,789l136 942 220 -1731 1254 0zm3359 0l0 3707 -843 0 -2 -2503 -335 2503 -591 0 -354 -2447 -2 2447 -844 0 0 -3707 1246 0c35,224 74,488 115,789l137 942 219 -1731 1254 0zm2051 0l552 3707 -985 0 -52 -666 -348 0 -52 666 -998 0 489 -3707 1394 0zm-511 2385c-46,-420 -95,-940 -146,-1561 -96,712 -156,1232 -181,1561l327 0zm4701 1322l-3473 0 0 -3707 966 0 0 2966 286 0 0 -2966 965 0 0 2966 286 0 0 -2966 970 0 0 3707zm-22418 -3221c-249,-1714 1432,-2327 2720,-2549l-5444 1 2724 2548z"/>
 </g>
</svg>
