<?xml version="1.0" encoding="UTF-8"?>
<!DOCTYPE svg PUBLIC "-//W3C//DTD SVG 1.1//EN" "http://www.w3.org/Graphics/SVG/1.1/DTD/svg11.dtd">
<!-- Creator: CorelDRAW X7 -->
<svg xmlns="http://www.w3.org/2000/svg" xml:space="preserve" width="300px" height="223px" version="1.1" style="shape-rendering:geometricPrecision; text-rendering:geometricPrecision; image-rendering:optimizeQuality; fill-rule:evenodd; clip-rule:evenodd"
viewBox="0 0 29213 21750"
 xmlns:xlink="http://www.w3.org/1999/xlink">
 <defs>
  <style type="text/css">
   <![CDATA[
    .fil0 {fill:#590074}
   ]]>
  </style>
 </defs>
 <g id="Слой_x0020_1">
  <metadata id="CorelCorpID_0Corel-Layer"/>
  <g id="_347514032">
   <path class="fil0" d="M2888 21750l23437 0c1613,0 2888,-1312 2888,-2887l0 -15975c0,-1613 -1313,-2888 -2888,-2888l-23437 0c-1613,0 -2888,1313 -2888,2888l0 15937c0,1613 1313,2925 2888,2925zm-75 -4237l5812 -6563c75,-75 150,-112 225,-150l-5662 -6375c-263,-300 -263,-787 75,-1050 300,-262 787,-262 1050,75l9300 10425c562,525 1500,525 2062,0l9300 -10425c263,-300 750,-337 1050,-75 300,263 338,750 75,1050l-5737 6375c112,38 225,113 300,188l5400 6150c262,300 225,787 -75,1050 -150,112 -300,187 -488,187 -225,0 -412,-75 -562,-262l-5363 -6113c-37,-37 -75,-112 -112,-150l-2738 3038c-562,562 -1312,862 -2100,862 -787,0 -1537,-300 -2100,-862l-37 -38 -2700 -3000c0,38 -38,38 -75,75l-5775 6600c-150,150 -375,225 -563,225 -187,0 -337,-75 -487,-187 -338,-263 -375,-750 -75,-1050z"/>
  </g>
 </g>
</svg>
