<?xml version="1.0" encoding="UTF-8"?>
<!DOCTYPE svg PUBLIC "-//W3C//DTD SVG 1.1//EN" "http://www.w3.org/Graphics/SVG/1.1/DTD/svg11.dtd">
<!-- Creator: CorelDRAW X7 -->
<svg xmlns="http://www.w3.org/2000/svg" xml:space="preserve" width="300px" height="76px" version="1.1" style="shape-rendering:geometricPrecision; text-rendering:geometricPrecision; image-rendering:optimizeQuality; fill-rule:evenodd; clip-rule:evenodd"
viewBox="0 0 30000 7589"
 xmlns:xlink="http://www.w3.org/1999/xlink">
 <defs>
  <style type="text/css">
   <![CDATA[
    .fil0 {fill:black}
   ]]>
  </style>
 </defs>
 <g id="Слой_x0020_1">
  <metadata id="CorelCorpID_0Corel-Layer"/>
  <path class="fil0" d="M3795 0c-2092,0 -3795,1703 -3795,3795 0,2092 1703,3794 3795,3794 2092,0 3794,-1702 3794,-3794 0,-2092 -1701,-3795 -3794,-3795zm0 5943c-1186,0 -2149,-964 -2149,-2148 0,-1186 965,-2149 2149,-2149 1185,0 2148,965 2148,2149 2,1185 -963,2148 -2148,2148z"/>
  <path class="fil0" d="M15116 0c-2092,0 -3794,1703 -3794,3795 0,2092 1702,3794 3794,3794 2092,0 3795,-1702 3795,-3794 0,-2092 -1703,-3795 -3795,-3795zm0 5943c-1185,0 -2148,-964 -2148,-2148 0,-1186 964,-2149 2148,-2149 1184,0 2149,965 2149,2149 0,1185 -965,2148 -2149,2148z"/>
  <path class="fil0" d="M26205 0c-2092,0 -3794,1703 -3794,3795 0,2092 1702,3794 3794,3794 2092,0 3795,-1702 3795,-3794 0,-2092 -1703,-3795 -3795,-3795zm0 5943c-1185,0 -2148,-964 -2148,-2148 0,-1186 964,-2149 2148,-2149 1186,0 2149,965 2149,2149 0,1185 -965,2148 -2149,2148z"/>
 </g>
</svg>
