<?xml version="1.0" encoding="UTF-8"?>
<!DOCTYPE svg PUBLIC "-//W3C//DTD SVG 1.1//EN" "http://www.w3.org/Graphics/SVG/1.1/DTD/svg11.dtd">
<!-- Creator: CorelDRAW X7 -->
<svg xmlns="http://www.w3.org/2000/svg" xml:space="preserve" width="300px" height="432px" version="1.1" style="shape-rendering:geometricPrecision; text-rendering:geometricPrecision; image-rendering:optimizeQuality; fill-rule:evenodd; clip-rule:evenodd"
viewBox="0 0 30305 43627"
 xmlns:xlink="http://www.w3.org/1999/xlink">
 <defs>
  <style type="text/css">
   <![CDATA[
    .fil0 {fill:black}
   ]]>
  </style>
 </defs>
 <g id="Слой_x0020_1">
  <metadata id="CorelCorpID_0Corel-Layer"/>
  <g id="_345899128">
   <path class="fil0" d="M23949 16678c2441,-2186 3661,-5186 3712,-9153l0 -3152 2644 0 0 -4373 -30305 0 0 4424 2644 0 0 3152c51,3966 1271,6966 3712,9153 763,712 1525,1373 2288,2085 610,559 1170,1067 1780,1627l0 0c0,0 51,51 51,51 101,101 254,254 356,355 0,0 50,51 50,51 102,102 153,204 255,356 0,0 0,51 50,51 51,102 102,204 153,356 0,0 0,51 0,51 51,102 51,254 51,356 0,102 0,254 -51,356 0,0 0,51 0,51 -51,101 -102,203 -153,356 0,0 0,50 -50,50 -51,102 -153,204 -204,305 0,0 -51,51 -51,51 -101,102 -203,255 -356,356 0,0 -50,51 -50,51l0 0c-611,559 -1170,1068 -1780,1627 -763,712 -1526,1424 -2288,2085 -2441,2186 -3661,5186 -3712,9153l0 2694 -2695 0 0 4424 30305 0 0 -4424 -2644 0 0 -2695c-51,-3966 -1271,-6966 -3712,-9152 -763,-712 -1525,-1373 -2288,-2085 -610,-559 -1169,-1068 -1780,-1627l0 0c-51,0 -51,-51 -101,-51 -102,-101 -255,-203 -305,-356 0,-51 -51,-51 -51,-101 -102,-102 -153,-204 -204,-306 0,-50 -51,-50 -51,-101 -50,-102 -101,-204 -152,-305 0,0 0,-51 0,-51 -51,-102 -51,-254 -51,-356 0,-102 0,-254 51,-356 0,0 0,-51 0,-51 51,-102 102,-203 152,-305 0,0 0,-51 51,-51 51,-101 153,-203 255,-305 0,0 50,-51 50,-51 102,-101 204,-254 356,-356 0,0 51,-51 51,-51l0 0c610,-559 1170,-1067 1780,-1627 712,-762 1474,-1474 2237,-2186zm-5237 2593c-102,102 -204,153 -254,254 0,0 0,0 -51,51 -661,661 -1017,1373 -1119,2085 0,0 0,0 0,0 0,102 0,203 0,254 0,51 0,51 0,102 0,0 0,0 0,0 0,0 0,0 0,0 0,51 0,51 0,102 0,101 0,203 0,254 0,0 0,0 0,0 102,712 458,1424 1119,2085 0,0 51,50 51,50 101,102 152,153 254,255 610,559 1220,1118 1830,1678 763,711 1526,1423 2339,2084 2136,1933 3153,4475 3204,7983l0 2695 -21763 0 0 -2695c51,-3508 1068,-6050 3203,-7983 763,-711 1526,-1423 2339,-2084 611,-560 1221,-1119 1831,-1678 102,-102 203,-153 254,-255 0,0 0,0 51,-50 661,-661 1017,-1373 1119,-2085 0,0 0,0 0,0 0,-102 0,-204 0,-254 0,-51 0,-51 0,-102 0,0 0,0 0,0 0,0 0,0 0,0 0,-51 0,-51 0,-102 0,-101 0,-203 0,-254 0,0 0,0 0,0 -102,-712 -458,-1424 -1119,-2085 0,0 -51,-51 -51,-51 -102,-101 -152,-152 -254,-254 -610,-559 -1220,-1118 -1831,-1678 -762,-712 -1525,-1423 -2339,-2084 -2135,-1933 -3152,-4475 -3203,-7984l0 -3152 21763 0 0 3102c-51,3508 -1068,6050 -3204,7983 -762,711 -1525,1423 -2339,2084 -610,611 -1220,1170 -1830,1729z"/>
   <path class="fil0" d="M15153 12915c-3102,-1017 -5695,-203 -7221,509 204,254 458,508 712,762 763,712 1576,1424 2339,2136 610,559 1220,1119 1780,1627 152,102 254,254 356,356 51,51 101,102 203,203 153,153 305,356 407,509 0,0 51,51 51,51 559,763 915,2135 915,2135 508,661 864,0 864,0 0,0 0,0 0,0 102,-610 407,-1372 916,-2084 0,0 0,-51 50,-51 153,-153 255,-356 407,-509 51,-51 102,-101 153,-152 101,-102 254,-254 356,-356 610,-559 1220,-1119 1779,-1627 763,-712 1577,-1424 2339,-2136 611,-559 1068,-1118 1475,-1830 -2695,1322 -3814,1779 -7881,457z"/>
   <path class="fil0" d="M15153 25068c203,0 406,-102 559,-254 152,-153 254,-356 254,-560 0,-51 0,-101 0,-152 0,-51 -51,-102 -51,-153 0,-51 -51,-102 -101,-152 -51,-51 -51,-102 -102,-102 -305,-305 -865,-305 -1119,0 -51,51 -51,102 -101,102 -51,50 -51,101 -51,152 0,51 -51,102 -51,153 0,51 0,101 0,152 0,204 102,407 254,560 102,152 305,254 509,254z"/>
   <path class="fil0" d="M14593 27407c153,152 356,254 560,254 203,0 406,-102 559,-254 152,-153 254,-356 254,-560 0,-50 0,-101 0,-152 0,-51 -51,-102 -51,-153 0,-50 -51,-101 -101,-152 -51,-51 -51,-102 -102,-102 -305,-305 -865,-305 -1119,0 -51,51 -51,102 -101,102 -51,51 -51,102 -51,152 0,51 -51,102 -51,153 0,51 0,102 0,152 -51,204 51,407 203,560z"/>
   <path class="fil0" d="M6915 37322l16475 0c0,-4576 -3712,-8237 -8237,-8237 -4526,0 -8238,3712 -8238,8237z"/>
  </g>
 </g>
</svg>
