<?xml version="1.0" encoding="UTF-8"?>
<!DOCTYPE svg PUBLIC "-//W3C//DTD SVG 1.1//EN" "http://www.w3.org/Graphics/SVG/1.1/DTD/svg11.dtd">
<!-- Creator: CorelDRAW X7 -->
<svg xmlns="http://www.w3.org/2000/svg" xml:space="preserve" width="300px" height="300px" version="1.1" style="shape-rendering:geometricPrecision; text-rendering:geometricPrecision; image-rendering:optimizeQuality; fill-rule:evenodd; clip-rule:evenodd"
viewBox="0 0 30000 30000"
 xmlns:xlink="http://www.w3.org/1999/xlink">
 <defs>
  <style type="text/css">
   <![CDATA[
    .fil0 {fill:#590074}
   ]]>
  </style>
 </defs>
 <g id="Слой_x0020_1">
  <metadata id="CorelCorpID_0Corel-Layer"/>
  <g id="_352261640">
   <path class="fil0" d="M12074 0c-6647,0 -12074,5427 -12074,12074 0,6646 5427,12074 12074,12074 2668,0 5143,-867 7146,-2344l7660 7660c715,715 1870,715 2584,0 715,-714 715,-1869 0,-2584l-7660 -7660c1477,-2003 2344,-4478 2344,-7146 0,-6647 -5428,-12074 -12074,-12074zm0 3659c4669,0 8415,3746 8415,8415 0,4669 -3746,8415 -8415,8415 -4669,0 -8415,-3746 -8415,-8415 0,-4669 3746,-8415 8415,-8415z" display="inline"/>
  </g>
 </g>
</svg>
