<?xml version="1.0" encoding="UTF-8"?>
<!DOCTYPE svg PUBLIC "-//W3C//DTD SVG 1.1//EN" "http://www.w3.org/Graphics/SVG/1.1/DTD/svg11.dtd">
<!-- Creator: CorelDRAW X7 -->
<svg xmlns="http://www.w3.org/2000/svg" xml:space="preserve" width="300px" height="293px" version="1.1" style="shape-rendering:geometricPrecision; text-rendering:geometricPrecision; image-rendering:optimizeQuality; fill-rule:evenodd; clip-rule:evenodd"
viewBox="0 0 32981 32184"
 xmlns:xlink="http://www.w3.org/1999/xlink">
 <defs>
  <style type="text/css">
   <![CDATA[
    .fil0 {fill:black}
   ]]>
  </style>
 </defs>
 <g id="Слой_x0020_1">
  <metadata id="CorelCorpID_0Corel-Layer"/>
  <path class="fil0" d="M13419 17492c-1457,-771 -1532,-1298 -2032,-630 -132,176 -243,235 -354,380 -366,479 162,1387 -1581,2759 -1561,1230 -2297,633 -2994,1345l-5774 5776c-152,153 -684,579 -684,785 0,471 311,1311 495,1642 493,889 1238,1664 2153,2119 1860,926 1650,587 3110,-874l4340 -4339c265,-264 411,-484 667,-735 467,-456 320,-256 479,-990 182,-840 492,-1429 925,-2012 1259,-1698 2322,-1231 2769,-1571 289,-219 456,-520 751,-718l-1001 -1669c219,-327 10046,-10079 11233,-11266 524,-524 450,-605 1265,-805 270,-66 575,-128 799,-201 427,-140 938,-1092 1381,-1691 297,-402 567,-790 851,-1219 158,-238 766,-1010 828,-1241l-1217 -1253 -3889 2689c-348,258 -280,399 -462,1141 -239,974 -859,1346 -1793,2280 -706,706 -1363,1363 -2069,2069 -250,250 -7981,7908 -8196,8229zm-9680 -16624c323,216 685,419 1047,621l2762 1578c464,261 464,135 464,672 0,973 -401,2005 -787,2618 -226,360 -469,613 -764,905 -132,130 -845,686 -1014,722 -250,53 -1962,-1025 -2188,-1161 -370,-223 -720,-423 -1101,-635 -307,-170 -873,-514 -1157,-580 -241,456 -133,687 222,1447 138,295 297,626 448,888 995,1731 2892,2844 4882,3129 1561,224 1499,-254 3062,944 844,647 3103,2915 3537,3206l3355 -3322c-324,-222 -490,-489 -735,-767l-1094 -1109c-143,-178 -170,-226 -340,-394 -138,-137 -233,-228 -369,-365l-1666 -2007c-762,-1015 -422,-1054 -600,-2404 -201,-1535 -595,-3037 -2132,-3810 -1561,-785 -3453,-1044 -5298,-1044 -201,0 -230,179 -314,354 -95,198 -170,298 -220,514zm13219 18159l684 786c262,259 473,471 736,732 170,170 190,224 335,399l1822 1917c153,199 185,218 346,389 134,142 238,302 350,451 217,289 401,532 580,888 444,878 29,2177 715,3825 1076,2585 4495,2898 6983,2898 250,0 514,-619 534,-868 -753,-398 -1422,-811 -2180,-1225 -250,-136 -2092,-1055 -2092,-1379 0,-1144 310,-2040 762,-2776 298,-486 1442,-1697 1841,-1697 304,0 3761,2097 4340,2404 90,-135 177,-266 267,-401 -227,-972 -1279,-2811 -2136,-3472l-801 -601c-284,-190 -563,-334 -911,-491 -3054,-1372 -3053,581 -6015,-2397l-736 -667c-229,-229 -462,-495 -704,-698l-731 -670c-243,-243 -443,-501 -718,-685 -185,124 -3188,3026 -3271,3338zm-7822 6088l-5550 5552c-371,372 -1190,-148 -676,-662l5550 -5552c372,-372 1190,148 676,662zm-1727 -1727l-5550 5552c-371,372 -1190,-148 -676,-662l5550 -5552c371,-372 1190,148 676,662z"/>
 </g>
</svg>
