<?xml version="1.0" encoding="UTF-8"?>
<!DOCTYPE svg PUBLIC "-//W3C//DTD SVG 1.1//EN" "http://www.w3.org/Graphics/SVG/1.1/DTD/svg11.dtd">
<!-- Creator: CorelDRAW X7 -->
<svg xmlns="http://www.w3.org/2000/svg" xml:space="preserve" width="300px" height="134px" version="1.1" style="shape-rendering:geometricPrecision; text-rendering:geometricPrecision; image-rendering:optimizeQuality; fill-rule:evenodd; clip-rule:evenodd"
viewBox="0 0 30000 13350"
 xmlns:xlink="http://www.w3.org/1999/xlink">
 <defs>
  <style type="text/css">
   <![CDATA[
    .fil0 {fill:black}
   ]]>
  </style>
 </defs>
 <g id="Слой_x0020_1">
  <metadata id="CorelCorpID_0Corel-Layer"/>
  <path class="fil0" d="M29167 5913l2 -1 -5469 -5912 -2408 0 -1642 0c-580,0 -1050,470 -1050,1050 0,580 470,1050 1050,1050l3330 0 4348 9239c1522,-294 2672,-1631 2672,-3239 0,-840 -316,-1604 -833,-2187z"/>
  <path class="fil0" d="M22409 3000l-2759 0c-1076,0 -1950,-872 -1950,-1950 0,-387 114,-747 308,-1050l-8708 0 0 11400 7800 0c0,-1408 1142,-2550 2550,-2550 1408,0 2550,1142 2550,2550l4161 0 -3952 -8400z"/>
  <path class="fil0" d="M19650 9450c-1077,0 -1950,873 -1950,1950 0,1077 873,1950 1950,1950 1077,0 1950,-873 1950,-1950 0,-1077 -873,-1950 -1950,-1950zm0 3000c-580,0 -1050,-470 -1050,-1050 0,-580 470,-1050 1050,-1050 580,0 1050,470 1050,1050 0,580 -470,1050 -1050,1050z"/>
  <path class="fil0" d="M4950 9450c-1077,0 -1950,873 -1950,1950 0,1077 873,1950 1950,1950 1077,0 1950,-873 1950,-1950 0,-1077 -873,-1950 -1950,-1950zm0 3000c-580,0 -1050,-470 -1050,-1050 0,-580 470,-1050 1050,-1050 580,0 1050,470 1050,1050 0,580 -470,1050 -1050,1050z"/>
  <path class="fil0" d="M2700 2700l-2100 3600 0 3600 -600 0 0 1500 2400 0c0,-1408 1141,-2550 2550,-2550 1408,0 2550,1142 2550,2550l900 0 0 -8700 -5700 0zm2250 3300l-3245 0 1371 -2400 1874 0 0 2400z"/>
 </g>
</svg>
